<?xml version="1.0" encoding="UTF-8" standalone="no"?>
<!-- Created with Inkscape (http://www.inkscape.org/) -->

<svg
   xmlns:dc="http://purl.org/dc/elements/1.1/"
   xmlns:cc="http://creativecommons.org/ns#"
   xmlns:rdf="http://www.w3.org/1999/02/22-rdf-syntax-ns#"
   xmlns:svg="http://www.w3.org/2000/svg"
   xmlns="http://www.w3.org/2000/svg"
   xmlns:sodipodi="http://sodipodi.sourceforge.net/DTD/sodipodi-0.dtd"
   xmlns:inkscape="http://www.inkscape.org/namespaces/inkscape"
   width="84.666664mm"
   height="53.7575mm"
   viewBox="0 0 84.666666 53.7575"
   version="1.1"
   id="svg8"
   sodipodi:docname="dottech.svg"
   inkscape:version="0.92.2 5c3e80d, 2017-08-06">
  <defs
     id="defs2">
    <clipPath
       id="clipPath3005"
       clipPathUnits="userSpaceOnUse">
      <rect
         y="2084.9441"
         x="174.58812"
         height="299.12241"
         width="299.12241"
         id="rect3007"
         style="fill:#008000;fill-opacity:1;stroke:#000000;stroke-width:0.8776021;stroke-linecap:butt;stroke-linejoin:miter;stroke-miterlimit:4;stroke-dasharray:none;stroke-dashoffset:5.3983984;stroke-opacity:0" />
    </clipPath>
    <clipPath
       clipPathUnits="userSpaceOnUse"
       id="clipPath3023">
      <path
         inkscape:connector-curvature="0"
         d="M 0,595.28 H 841.89 V 0 H 0 Z"
         id="path3025" />
    </clipPath>
    <clipPath
       id="clipPath3005-5"
       clipPathUnits="userSpaceOnUse">
      <rect
         y="2084.9441"
         x="174.58812"
         height="299.12241"
         width="299.12241"
         id="rect3007-9"
         style="fill:#008000;fill-opacity:1;stroke:#000000;stroke-width:0.8776021;stroke-linecap:butt;stroke-linejoin:miter;stroke-miterlimit:4;stroke-dasharray:none;stroke-dashoffset:5.3983984;stroke-opacity:0" />
    </clipPath>
    <clipPath
       clipPathUnits="userSpaceOnUse"
       id="clipPath3023-7">
      <path
         inkscape:connector-curvature="0"
         d="M 0,595.28 H 841.89 V 0 H 0 Z"
         id="path3025-9" />
    </clipPath>
  </defs>
  <sodipodi:namedview
     id="base"
     pagecolor="#ffffff"
     bordercolor="#666666"
     borderopacity="1.0"
     inkscape:pageopacity="0.0"
     inkscape:pageshadow="2"
     inkscape:zoom="0.35"
     inkscape:cx="-284.57376"
     inkscape:cy="243.14366"
     inkscape:document-units="mm"
     inkscape:current-layer="layer1"
     showgrid="false"
     inkscape:window-width="1440"
     inkscape:window-height="769"
     inkscape:window-x="0"
     inkscape:window-y="1"
     inkscape:window-maximized="1"
     fit-margin-top="6.4"
     fit-margin-bottom="6.4"
     fit-margin-left="0"
     fit-margin-right="0" />
  <metadata
     id="metadata5">
    <rdf:RDF>
      <cc:Work
         rdf:about="">
        <dc:format>image/svg+xml</dc:format>
        <dc:type
           rdf:resource="http://purl.org/dc/dcmitype/StillImage" />
        <dc:title></dc:title>
      </cc:Work>
    </rdf:RDF>
  </metadata>
  <g
     inkscape:label="Layer 1"
     inkscape:groupmode="layer"
     id="layer1"
     transform="translate(-51.480976,-129.16949)">
    <g
       transform="matrix(0.19069069,0,0,0.19067675,131.60545,-400.10267)"
       id="layer1-6"
       inkscape:label="Layer 1">
      <g
         inkscape:export-ydpi="90"
         inkscape:export-xdpi="90"
         inkscape:export-filename="C:\Users\spdrs_000\Desktop\tech.png"
         id="g3017"
         inkscape:label="black"
         transform="matrix(0.80454794,0,0,-0.80454794,-536.85079,3170.8997)">
        <g
           id="g3019">
          <g
             id="g3021"
             clip-path="url(#clipPath3023-7)">
            <g
               id="g3027"
               transform="translate(201.9087,294.8691)">
              <path
                 inkscape:connector-curvature="0"
                 d="m 0,0 c 0,-15.711 -12.737,-28.45 -28.448,-28.45 -15.709,0 -28.447,12.739 -28.447,28.45 0,15.707 12.738,28.446 28.447,28.446 C -12.737,28.446 0,15.707 0,0"
                 style="fill:#34b540;fill-opacity:1;fill-rule:nonzero;stroke:none"
                 id="path3029" />
            </g>
            <g
               id="g3031"
               transform="translate(368.6899,377.1958)">
              <path
                 inkscape:connector-curvature="0"
                 d="M 0,0 5.409,4.673 H 38.37 L 42.3,0 39.105,-15.921 35.17,-19.363 H -3.695 Z M 47.221,-50.108 73.489,-28.019 79.637,9.093 59.524,34.256 H -5.908 L -36.281,8.665 -51.408,-82.72 l 19.91,-26.455 73.089,-0.019 22.745,26.463 3.631,21.962 H 67.334 37.372 30.667 l -1.054,-7.128 -6.384,-4.678 -32.823,0.068 -4.095,4.621 2.835,17.862 z"
                 style="fill:#242222;fill-opacity:1;fill-rule:nonzero;stroke:none"
                 id="path3033" />
            </g>
            <g
               id="g3035"
               transform="translate(562.9238,316.46)">
              <path
                 inkscape:connector-curvature="0"
                 d="m 0,0 -38.781,-0.089 -1.427,-8.838 -6.381,-4.678 h -32.324 l -4.066,4.609 10.472,65.061 6.373,4.671 h 32.957 l 2.978,-4.671 -0.816,-8.541 39.212,-0.073 3.698,22.343 -17.46,25.198 h -70.363 l -28.791,-25.163 -15.199,-91.813 20.499,-26.455 h 73.165 L -3.222,-21.984 0.63,0 0,-0.004 Z"
                 style="fill:#242222;fill-opacity:1;fill-rule:nonzero;stroke:none"
                 id="path3037" />
            </g>
            <g
               id="g3039"
               transform="translate(274.0425,309.1807)">
              <path
                 inkscape:connector-curvature="0"
                 d="M 0,0 -5.395,-4.678 H -19.909 L -23.858,0 l 2.523,16.465 8.803,51.631 h 35.128 l 5.481,34.024 H -4.484 l 6.552,38.118 H -36.055 L -42.61,102.12 h -17.933 l -5.482,-34.024 h 18.595 l -13.688,-82.659 19.163,-25.781 h 8.113 46.344 -0.745 l 21.292,25.639 3.646,21.837 H 1.052 Z"
                 style="fill:#242222;fill-opacity:1;fill-rule:nonzero;stroke:none"
                 id="path3041" />
            </g>
            <g
               id="g3043"
               transform="translate(677.7754,411.4546)">
              <path
                 inkscape:connector-curvature="0"
                 d="m 0,0 h -41.039 l -8.313,-6.773 -5.361,-3.933 2.745,17.188 5.117,31.482 H -82.61 l -30.036,-181.398 h 36.506 l 15.429,95.887 12.332,8.556 h 23.861 l 5.271,-10.116 -15.222,-94.327 H 0.167 L 19.101,-25.2 Z"
                 style="fill:#242222;fill-opacity:1;fill-rule:nonzero;stroke:none"
                 id="path3045" />
            </g>
            <g
               id="g3047"
               transform="translate(346.1069,235.0088)">
              <path
                 inkscape:connector-curvature="0"
                 d="m 0,0 v -43.773 h 2.482 c 3.81,0 7.27,0.376 10.379,1.127 3.109,0.752 5.93,1.957 8.462,3.611 2.532,1.655 4.512,3.936 5.942,6.845 1.428,2.908 2.143,6.341 2.143,10.303 0,4.011 -0.715,7.47 -2.143,10.379 -1.43,2.907 -3.422,5.178 -5.98,6.808 -2.556,1.629 -5.377,2.819 -8.461,3.572 C 9.74,-0.376 6.292,0 2.482,0 Z M -7.07,-50.241 V 6.469 H 4.663 c 9.177,0 16.773,-2.421 22.79,-7.258 6.016,-4.84 9.025,-11.772 9.025,-20.797 0,-9.276 -2.983,-16.371 -8.95,-21.284 -5.967,-4.915 -13.664,-7.371 -23.091,-7.371 z"
                 style="fill:#6e6f71;fill-opacity:1;fill-rule:nonzero;stroke:none"
                 id="path3049" />
            </g>
            <g
               id="g3051"
               transform="translate(399.4321,196.8389)">
              <path
                 inkscape:connector-curvature="0"
                 d="m 0,0 c 4.463,-4.437 9.778,-6.657 15.945,-6.657 6.168,0 11.482,2.22 15.945,6.657 4.463,4.437 6.694,9.864 6.694,16.283 0,6.367 -2.144,11.783 -6.431,16.246 -4.287,4.462 -9.691,6.695 -16.208,6.695 -6.519,0 -11.921,-2.233 -16.208,-6.695 C -4.55,28.066 -6.693,22.65 -6.693,16.283 -6.693,9.864 -4.464,4.437 0,0 m -5.001,37.154 c 5.84,5.792 12.823,8.688 20.946,8.688 8.123,0 15.104,-2.896 20.946,-8.688 5.841,-5.791 8.763,-12.747 8.763,-20.871 0,-8.375 -2.884,-15.393 -8.65,-21.059 -5.765,-5.667 -12.786,-8.499 -21.059,-8.499 -8.273,0 -15.294,2.832 -21.059,8.499 -5.767,5.666 -8.65,12.684 -8.65,21.059 0,8.124 2.921,15.08 8.763,20.871"
                 style="fill:#6e6f71;fill-opacity:1;fill-rule:nonzero;stroke:none"
                 id="path3053" />
            </g>
            <g
               id="g3055"
               transform="translate(478.5557,183.5635)">
              <path
                 inkscape:connector-curvature="0"
                 d="m 0,0 -16.999,38.659 h -0.15 l -6.62,-37.455 h -7.294 L -19.48,60.32 0,15.645 19.479,60.32 31.062,1.204 h -7.295 l -6.62,37.455 h -0.15 z"
                 style="fill:#6e6f71;fill-opacity:1;fill-rule:nonzero;stroke:none"
                 id="path3057" />
            </g>
            <g
               id="g3059"
               transform="translate(547.0723,205.4512)">
              <path
                 inkscape:connector-curvature="0"
                 d="M 0,0 -10.078,22.938 -20.156,0 Z M 2.934,-6.469 H -23.09 l -6.468,-14.215 h -7.595 l 27.075,59.117 27.077,-59.117 H 9.402 Z"
                 style="fill:#6e6f71;fill-opacity:1;fill-rule:nonzero;stroke:none"
                 id="path3061" />
            </g>
            <path
               inkscape:connector-curvature="0"
               d="m 575.653,184.767 h -7.07 v 56.711 h 7.07 z"
               style="fill:#6e6f71;fill-opacity:1;fill-rule:nonzero;stroke:none"
               id="path3063" />
            <g
               id="g3065"
               transform="translate(585.5801,184.7676)">
              <path
                 inkscape:connector-curvature="0"
                 d="M 0,0 V 59.418 L 42.57,14.816 v 41.895 h 7.071 V -2.332 L 7.07,42.27 V 0 Z"
                 style="fill:#6e6f71;fill-opacity:1;fill-rule:nonzero;stroke:none"
                 id="path3067" />
            </g>
            <g
               id="g3069"
               transform="translate(676.1348,234.1064)">
              <path
                 inkscape:connector-curvature="0"
                 d="m 0,0 -5.641,-3.385 c -2.106,3.56 -5.14,5.34 -9.101,5.34 -2.406,0 -4.587,-0.752 -6.543,-2.257 -1.955,-1.503 -2.934,-3.434 -2.934,-5.791 0,-3.411 2.633,-6.117 7.898,-8.122 l 4.062,-1.579 c 4.512,-1.756 7.984,-3.937 10.416,-6.544 2.432,-2.608 3.648,-6.118 3.648,-10.53 0,-5.114 -1.743,-9.338 -5.227,-12.672 -3.486,-3.336 -7.784,-5.003 -12.899,-5.003 -4.564,0 -8.474,1.492 -11.733,4.476 -3.26,2.983 -5.19,6.78 -5.793,11.394 l 7.147,1.504 c -0.051,-3.059 0.989,-5.616 3.121,-7.671 2.132,-2.057 4.75,-3.085 7.859,-3.085 3.009,0 5.502,1.092 7.486,3.272 1.978,2.181 2.969,4.776 2.969,7.785 0,2.757 -0.865,4.927 -2.593,6.506 -1.733,1.579 -4.126,2.996 -7.185,4.25 l -3.91,1.654 c -3.862,1.655 -6.882,3.561 -9.063,5.717 -2.181,2.155 -3.273,5.038 -3.273,8.648 0,4.412 1.655,7.96 4.965,10.644 3.309,2.681 7.22,4.023 11.733,4.023 C -8.073,8.574 -3.209,5.716 0,0"
                 style="fill:#6e6f71;fill-opacity:1;fill-rule:nonzero;stroke:none"
                 id="path3071" />
            </g>
          </g>
        </g>
      </g>
    </g>
  </g>
</svg>
