<?xml version="1.0" encoding="UTF-8"?>
<svg width="143.84mm" height="101.07mm" version="1.1" viewBox="0 0 143.84099 101.0708" xmlns="http://www.w3.org/2000/svg" xmlns:cc="http://creativecommons.org/ns#" xmlns:dc="http://purl.org/dc/elements/1.1/" xmlns:rdf="http://www.w3.org/1999/02/22-rdf-syntax-ns#">
<metadata>
<rdf:RDF>
<cc:Work rdf:about="">
<dc:format>image/svg+xml</dc:format>
<dc:type rdf:resource="http://purl.org/dc/dcmitype/StillImage"/>
<dc:title/>
</cc:Work>
</rdf:RDF>
</metadata>
<g transform="translate(-29.155 -92.345)">
<path d="m112.86 190.77c-1.4498-1.4552-2.7704-2.6458-2.9347-2.6458-0.3113 0-0.63087 1.9646-0.63484 3.9026l-2e-3 1.1245h-1.1545c-1.0394 0-1.1483-0.0594-1.0921-0.59531 0.0343-0.32743 0.0776-2.7124 0.0962-5.3 0.0429-5.9798 0.028-5.9684 3.2646-2.4802 1.3037 1.4051 2.5223 2.5546 2.7079 2.5546 0.35379 0 0.66933-1.8358 0.67353-3.9186l2e-3 -1.1404 0.99219 0.0821 0.99219 0.0821 0.0715 5.4901c0.0393 3.0196-0.0224 5.4901-0.13725 5.4901-0.11483 0-1.3949-1.1906-2.8447-2.6458zm-40.349-2.8948c0-3.7291 0.0903-5.3319 0.30814-5.4665 0.5677-0.35087 4.0448-0.43203 5.194-0.12125 1.4362 0.38838 2.1684 1.4806 2.1698 3.2367 2e-3 2.0313-1.5977 3.3872-4.0015 3.3923-1.0055 2e-3 -1.2504 0.45968-1.315 2.4569l-0.0576 1.7779h-2.2978zm5.0165-1.7227c0.4669-0.56258 0.237-1.2625-0.562-1.711-1.0203-0.57268-2.0733-0.0602-2.0733 1.0091 0 0.42756 0.14883 0.83743 0.33073 0.91083 0.69027 0.27853 1.9984 0.15993 2.3046-0.20894zm8.0088 1.5086 0.0715-5.4901 2.3812-0.0826c2.993-0.10379 4.225 0.23614 4.9065 1.3538 0.82933 1.3602 0.68469 2.7994-0.42773 4.2563l-0.94524 1.2379 0.89732 1.6444c1.4246 2.6106 1.4235 2.5704 0.0705 2.5704h-1.1706l-1.0913-1.8686c-1.6628-2.8472-2.3056-2.825-2.3982 0.0826l-0.0568 1.7859h-2.3086zm4.9542-1.5068c0.9069-1.0928-0.55755-2.4271-1.9616-1.7874-0.49778 0.2268-0.67212 0.50788-0.67212 1.0836 0 0.42756 0.14883 0.83743 0.33073 0.91083 0.68891 0.27798 1.9982 0.16025 2.303-0.20709zm8.4788 1.6394 0.13229-5.3582h1.8521l0.13229 5.3582 0.13229 5.3582h-2.3813zm24.62 1.2041c-0.0216-2.5341-0.14683-4.2877-0.32129-4.4979-0.15727-0.18949-0.60473-0.34453-0.99437-0.34453-0.86922 0-1.3434-0.43895-1.3434-1.2435 0-0.60708 9e-3 -0.60854 3.8448-0.60854 3.3155 0 3.8676 0.0596 4.0109 0.43284 0.21546 0.56146-0.23552 1.2662-0.87252 1.3634-1.721 0.26271-1.6914 0.23-1.6914 1.8718 0 0.84771-0.0776 2.81-0.1725 4.3606l-0.1725 2.8193h-2.2522zm10.835 3.8121c-0.72081-0.36338-1.0033-1.3365-0.54737-1.8858 0.21976-0.2648 0.6076-0.28754 1.6556-0.097 1.4889 0.27062 2.5959-0.0234 2.5959-0.68945 0-0.39559-1.4483-1.749-1.8716-1.749-0.5184 0-2.3345-1.9196-2.4912-2.6331-0.49336-2.2462 2.184-4.3748 4.663-3.7073 1.9434 0.52329 1.5052 2.1071-0.58294 2.1071-1.0558 0-1.6658 0.49403-1.5234 1.2336 0.0493 0.25592 0.80326 0.8612 1.6755 1.3451 2.0999 1.1649 2.5119 1.6919 2.5119 3.2126 0 2.1597-1.2731 3.2073-3.8895 3.2007-0.84397-2e-3 -1.8322-0.15395-2.196-0.33735zm-100.66-7.7265c-3.1245-1.113-4.7037-4.0959-3.8542-7.28 0.24134-0.90465 0.71716-1.5746 1.9913-2.8038 2.008-1.9371 2.0725-2.1323 2.759-8.35 1.283-11.62 1.2795-12.124-0.0839-12.13-0.97546-5e-3 -3.1789-1.1981-4.0561-2.1972-1.9993-2.2771-1.7784-5.5485 0.52583-7.7876 0.81479-0.79176 1.5431-1.201 2.7028-1.5188 2.7631-0.75712 3.0172-0.90788 3.291-1.9528 0.1385-0.52845 0.56082-3.9969 0.93847-7.7077 0.93536-9.1906 1.0592-9.8878 2.1542-12.133 1.6054-3.2919 4.768-5.9732 8.9966-7.6278 2.4904-0.97446 6.2635-1.0366 8.8401-0.14557 7.3054 2.5263 13.49 10.061 12.406 15.115-0.53052 2.4737-3.1059 4.5273-5.6778 4.5273-2.0324 0-3.48-1.0113-5.6809-3.9688-2.2272-2.9928-3.6415-3.9688-5.7514-3.9688-1.4967 0-2.361 0.51464-2.8567 1.701-0.19259 0.46093-0.62124 3.3163-0.95257 6.3453-0.70875 6.4794-0.79081 6.2413 2.1512 6.2413 1.4828 0 1.9374 0.119 2.9798 0.78009 2.764 1.7529 3.3606 5.9092 1.2013 8.3685-1.0294 1.1724-2.6459 1.9987-5.3612 2.7406-1.159 0.31668-2.2479 0.69243-2.4197 0.835-0.43904 0.36438-0.50486 0.84069-1.5682 11.349-1.1334 11.201-1.4822 13.363-2.5116 15.574-1.4566 3.1274-3.0608 4.6144-6.2123 5.7584-1.9917 0.72296-2.5016 0.75359-3.951 0.23729zm131.31-12.396c-2.4967-0.92859-4.9-3.5236-5.9193-6.3915-0.59834-1.6834-0.78302-5.7244-0.43235-9.4598 0.16521-1.7598 0.17455-3.1804 0.0245-3.7238-0.49032-1.7758-2.4585-2.7749-4.4236-2.2455-0.96522 0.26-2.5002 1.4907-2.9968 2.4026-0.13996 0.25701-0.54763 3.1145-0.90593 6.35-0.35831 3.2355-0.77356 6.4852-0.92279 7.2216-0.88238 4.3543-6.4661 5.8652-9.5644 2.5879-1.5997-1.6921-1.6109-2.4884-0.21178-15.039 1.2297-11.031 3.8594-32.31 4.2429-34.332 0.29502-1.5556 1.2845-2.9567 2.6609-3.7678 0.67261-0.39636 1.3737-0.52917 2.7934-0.52917 1.6838 0 2.0231 0.0897 3.0388 0.80358 1.8988 1.3345 2.342 2.2294 2.3406 4.7256-8e-4 1.179-0.53144 5.8932-1.1795 10.476-0.74118 5.2414-1.0854 8.4252-0.92781 8.5827 0.15754 0.15754 0.76684 0.04 1.6425-0.31691 3.1509-1.2842 6.1045-1.4228 9.065-0.42521 2.5445 0.85739 5.0034 3.0466 6.3996 5.6975 0.71311 1.354 0.74415 1.5674 0.74408 5.1171-5e-5 2.0373-0.10033 5.371-0.22285 7.4083l-0.22276 3.7042 1.1939 1.5688c2.005 2.6345 2.2284 4.6534 0.77512 7.004-1.4397 2.3286-4.5665 3.483-6.9913 2.5811zm-72.159-1.2367c-5.0768-1.0713-9.5361-6.0711-10.379-11.637-0.35369-2.3359-0.14512-6.901 0.40916-8.9554 0.55837-2.0695 2.0136-4.9641 3.4503-6.8631 4.5093-5.9601 12.07-8.0232 18.137-4.9488 2.7893 1.4134 4.5022 3.9987 5.0702 7.652 0.74309 4.7797-1.3019 8.9991-5.5886 11.531-2.4531 1.4487-5.3503 2.3496-8.208 2.5525-1.3195 0.0937-2.6056 0.32433-2.8581 0.51259-0.42606 0.31771-0.40629 0.39559 0.27537 1.0846 0.721 0.72876 0.78852 0.7419 3.7042 0.72084 2.7455-0.0198 3.1596-0.0937 5.4833-0.97827 3.6652-1.3952 4.791-1.6328 5.9405-1.2534 0.99585 0.32866 1.997 1.7888 1.997 2.9125 0 2.3975-3.5654 5.4416-8.2841 7.0731-1.4896 0.515-2.5626 0.67776-4.9451 0.75011-1.6735 0.0508-3.5656-0.0179-4.2047-0.1528zm5.2877-19.378c1.9772-0.96735 3.155-2.2372 3.3376-3.5985 0.36721-2.7377-2.8203-4.0901-5.9566-2.5273-1.6512 0.82281-2.789 2.1313-3.4965 4.021-1.0095 2.6963-0.7144 3.0531 2.408 2.9112 1.7788-0.0809 2.5815-0.25545 3.7075-0.80633zm-37.747 18.882c-1.3568-0.61627-2.6092-2.1189-3.0358-3.6424-0.39406-1.4075-0.28196-3.3094 0.66811-11.335 0.86412-7.2995 1.3672-10.74 1.7641-12.065 0.39428-1.316 1.9202-3.1099 3.0452-3.58 1.6266-0.67965 4.8199-0.35611 5.9324 0.60106 0.65542 0.56395 1.0386 0.44514 3.1049-0.96287 2.2526-1.5349 5.1038-2.5188 6.6845-2.3068 1.6083 0.21572 3.3022 1.3517 4.1395 2.7763 1.0329 1.7571 1.0438 4.1634 0.0268 5.8933-0.94819 1.6128-2.5148 2.4278-6.3068 3.2805-3.3167 0.74589-5.6349 1.725-6.197 2.6174-0.19786 0.31409-0.61369 2.7142-0.92408 5.3336-1.0064 8.4933-1.3188 10.092-2.2396 11.463-1.5286 2.2765-4.1945 3.0474-6.6622 1.9266zm61.799 0.31755c-3.5498-0.59672-7.1239-2.1609-8.738-3.824-1.0271-1.0584-1.8454-2.996-1.8454-4.3698 0-1.0664 0.8277-2.7236 1.6542-3.3121 1.263-0.89938 2.5675-0.74095 5.8864 0.71488 3.3619 1.4747 5.3773 1.813 6.226 1.0449 0.28645-0.25924 0.52082-0.75623 0.52082-1.1044 0-1.1816-1.7471-2.3122-6.6675-4.3149-2.7306-1.1114-3.8971-2.0091-4.8227-3.7115-2.5156-4.6268 0.28436-11.717 5.6078-14.199 3.5723-1.6661 11.202-0.78557 13.788 1.5911 0.84967 0.78103 1.6066 2.487 1.6137 3.6369 8e-3 1.3454-1.1893 3.584-2.3332 4.3613-1.1839 0.80446-2.4642 0.83708-4.8048 0.1224-2.9411-0.89805-4.1046-0.61065-3.9217 0.96869 0.0784 0.67708 0.35663 0.84535 3.4688 2.0982 3.9901 1.6062 5.7461 2.7202 6.8186 4.3258 1.1097 1.6613 1.4272 2.9582 1.4286 5.8365 1e-3 2.1902-0.0926 2.7154-0.72869 4.0826-1.0906 2.344-2.337 3.7094-4.2283 4.6317-2.6022 1.269-6.3127 1.86-8.9228 1.4213zm-21.564-44.957c-11.573-0.92063-18.267-1.6508-20.662-2.2538-1.4254-0.35893-2.2398-1.2573-3.0239-3.3356-0.79564-2.1091-2.2003-7.6247-3.1685-12.442-0.88971-4.4264-0.84412-4.9094 0.48869-5.1759 1.3811-0.27621 6.8336-0.52303 7.5549-0.34199 0.47284 0.11867 1.0132 0.6703 1.6559 1.6905 1.7582 2.791 2.7857 3.5513 4.8326 3.5758 2.5169 0.0301 3.7642-1.3994 4.2578-4.88 0.15695-1.1066 0.46475-2.1322 0.72835-2.4269 0.80726-0.90243 12.427-8.3805 13.022-8.3805 0.22467 0 7.7568 4.6385 10.904 6.7148 1.2663 0.83548 2.3633 1.7203 2.4378 1.9662s0.26327 1.2642 0.4195 2.2629c0.53244 3.4036 1.7698 4.7734 4.2843 4.7431 1.7499-0.0211 2.9052-0.83492 4.4634-3.1441 0.89255-1.3227 1.538-2.0077 2.0017-2.124 0.90532-0.22722 6.7832 0.1243 7.7574 0.46393 0.42077 0.14668 0.83209 0.44142 0.91404 0.65498 0.31139 0.81146-1.9238 10.74-3.5862 15.93-0.90959 2.8395-1.665 3.8157-3.2916 4.2536-1.3069 0.35181-8.179 1.2214-13.866 1.7546-4.2564 0.39905-15.477 0.70534-18.124 0.49474zm1.4079-2.4499c0.28274-0.17926 0.29539-0.70783 0.0661-2.7636-0.70165-6.2924-0.0218-10.922 1.9912-13.559l0.90031-1.1795v-5.0248c0-4.3351-0.0556-5.0248-0.40504-5.0248-0.40916 0-6.2038 3.5098-8.2355 4.9882-0.69711 0.50727-1.1526 1.0728-1.2437 1.5441-0.0791 0.40905-0.27558 1.4206-0.43663 2.2479-1.2298 6.317-8.7407 7.3148-12.577 1.6708-1.0772-1.5848-1.0815-1.5876-2.5182-1.6641-0.79149-0.0421-1.9153 0.0221-2.4974 0.14268-0.88793 0.18397-1.0718 0.33499-1.1422 0.93796-0.0852 0.73028 0.65057 4.5133 1.0083 5.1841 0.10774 0.20202 1.1313 0.85687 2.2745 1.4552 2.4964 1.3066 2.7396 1.6724 3.8015 5.72 0.43372 1.6532 0.94106 3.1577 1.1274 3.3435 0.54684 0.54508 8.9393 1.6392 15.552 2.0276 0.80036 0.047 1.5743 0.10566 1.7198 0.13035 0.14552 0.0247 0.4219-0.0549 0.61417-0.17677zm5.9921-0.31759c0.16984-0.16984 0.27285-2.3406 0.27285-5.7497 0-5.8538-0.29504-7.6019-1.4612-8.6573-0.74515-0.67435-1.2026-0.17491-1.9152 2.0908-0.50758 1.6139-0.59011 2.4512-0.57675 5.8521 0.017 4.3267 0.32474 5.9578 1.2488 6.6187 0.61549 0.44021 1.9196 0.3573 2.4315-0.15458zm11.786-0.25769c7.0347-0.68683 8.2186-0.88354 8.6198-1.4322 0.1808-0.24727 0.53105-1.3631 0.77832-2.4796 0.96677-4.3654 1.6661-5.4374 4.4608-6.8374 0.74323-0.37233 1.5487-0.85047 1.7899-1.0625 0.48146-0.42331 1.4657-5.0418 1.2141-5.6973-0.16299-0.42473-1.8534-0.74197-3.8724-0.72677-1.2017 9e-3 -1.2358 0.0337-2.2873 1.6536-2.4149 3.7201-6.6485 4.8644-9.9642 2.6933-1.3484-0.88297-2.2722-2.5909-2.7326-5.0523-0.32244-1.7239-0.52352-2.1957-1.1691-2.7434-1.1559-0.9806-8.1315-5.2917-8.5622-5.2917-0.43946 0-0.71363 2.5776-0.71363 6.7092v2.6606l1.0815 1.5418c1.9851 2.83 2.1938 3.7755 2.2929 10.387 0.048 3.2015 0.13942 5.9732 0.20321 6.1595 0.12846 0.37502 0.0211 0.38086 8.8611-0.48223zm-38.982-3.303c-0.24206-2.5921-1.6859-5.2965-2.5444-4.7658-0.4163 0.25729-0.34971 0.84652 0.35303 3.1241 0.72481 2.3491 1.307 3.3685 1.9236 3.3685 0.3683 0 0.40621-0.24443 0.26779-1.7268zm52.319 0.33768c0.82714-1.879 1.5404-4.4118 1.3685-4.8596-0.44671-1.1641-1.777 0.23277-2.5127 2.6386-0.7378 2.4125-0.74144 3.6102-0.011 3.6102 0.40189 0 0.70324-0.36236 1.1552-1.3891z" fill="#007ab8" stroke-width=".26458"/>
</g>
</svg>
