<svg id="GoogleG_FullColor_rgb" xmlns="http://www.w3.org/2000/svg" viewBox="0 0 23 24"><defs><style>.cls-1{fill:#4285f4;}.cls-2{fill:#34a853;}.cls-3{fill:#fabb05;}.cls-4{fill:#e94235;}</style></defs><title>GoogleG_FullColor_rgb_24px</title><g id="_24px" data-name="24px"><path class="cls-1" d="M23,12.27A14,14,0,0,0,22.81,10H12v4h6.09a6.75,6.75,0,0,1-2.36,4.09v3h3.79A11.87,11.87,0,0,0,23,12.27Z"/><path class="cls-2" d="M11.75,24a11.08,11.08,0,0,0,7.77-2.91l-3.79-3a6.94,6.94,0,0,1-4,1.16,7,7,0,0,1-6.59-5H1.26v3.09A11.72,11.72,0,0,0,11.75,24Z"/><path class="cls-3" d="M5.16,14.29a7.09,7.09,0,0,1,0-4.58V6.62H1.26a12.12,12.12,0,0,0,0,10.76Z"/><path class="cls-4" d="M11.75,4.75a6.33,6.33,0,0,1,4.51,1.8h0l3.35-3.42A11.15,11.15,0,0,0,11.75,0,11.72,11.72,0,0,0,1.26,6.62l3.9,3.09A7,7,0,0,1,11.75,4.75Z"/></g></svg>