<?xml version="1.0" encoding="UTF-8" standalone="no"?>
<svg
   xmlns:dc="http://purl.org/dc/elements/1.1/"
   xmlns:cc="http://creativecommons.org/ns#"
   xmlns:rdf="http://www.w3.org/1999/02/22-rdf-syntax-ns#"
   xmlns:svg="http://www.w3.org/2000/svg"
   xmlns="http://www.w3.org/2000/svg"
   xmlns:sodipodi="http://sodipodi.sourceforge.net/DTD/sodipodi-0.dtd"
   xmlns:inkscape="http://www.inkscape.org/namespaces/inkscape"
   viewBox="0 0 1047.4485 647.44788"
   height="647.44788"
   width="1047.4485"
   xml:space="preserve"
   id="svg2"
   version="1.1"
   sodipodi:docname="HB_Logo.svg"
   inkscape:version="0.92.2 5c3e80d, 2017-08-06"><sodipodi:namedview
     pagecolor="#ffffff"
     bordercolor="#666666"
     borderopacity="1"
     objecttolerance="10"
     gridtolerance="10"
     guidetolerance="10"
     inkscape:pageopacity="0"
     inkscape:pageshadow="2"
     inkscape:window-width="1280"
     inkscape:window-height="751"
     id="namedview37"
     showgrid="false"
     fit-margin-left="200"
     fit-margin-right="200"
     fit-margin-bottom="0"
     borderlayer="true"
     inkscape:zoom="0.28921569"
     inkscape:cx="133.01267"
     inkscape:cy="330.39584"
     inkscape:window-x="0"
     inkscape:window-y="1"
     inkscape:window-maximized="1"
     inkscape:current-layer="svg2"
     fit-margin-top="0" /><metadata
     id="metadata8"><rdf:RDF><cc:Work
         rdf:about=""><dc:format>image/svg+xml</dc:format><dc:type
           rdf:resource="http://purl.org/dc/dcmitype/StillImage" /><dc:title></dc:title></cc:Work></rdf:RDF></metadata><defs
     id="defs6" /><g
     transform="matrix(1.3333333,0,0,-1.3333333,115.72454,725.05198)"
     id="g10"><g
       transform="scale(0.1)"
       id="g12"><path
         id="path14"
         style="fill:#faf7e8;fill-opacity:1;fill-rule:nonzero;stroke:none"
         d="M 5487.93,3009.97 C 5487.93,1669.06 4400.91,582.031 3060,582.031 1719.1,582.031 632.066,1669.06 632.066,3009.97 c 0,1340.9 1087.034,2427.92 2427.934,2427.92 1340.91,0 2427.93,-1087.02 2427.93,-2427.92"
         inkscape:connector-curvature="0" /><path
         id="path16"
         style="fill:#151c26;fill-opacity:1;fill-rule:nonzero;stroke:none"
         d="M 5423.49,3009.96 C 5423.49,1704.65 4365.32,646.469 3060,646.469 1754.69,646.469 696.508,1704.65 696.508,3009.96 c 0,1305.32 1058.182,2363.49 2363.492,2363.49 1305.32,0 2363.49,-1058.17 2363.49,-2363.49"
         inkscape:connector-curvature="0" /><path
         id="path18"
         style="fill:#eb1a2c;fill-opacity:1;fill-rule:nonzero;stroke:none"
         d="m 3013.33,4525.35 h -98.47 v -49.76 h 98.47 v 49.76"
         inkscape:connector-curvature="0" /><path
         id="path20"
         style="fill:#eb1a2c;fill-opacity:1;fill-rule:nonzero;stroke:none"
         d="m 4372.52,3157.19 h 157.6 v 446.26 c 105.8,13.05 216.14,70.96 302.63,160.45 l 50.98,52.8 -162.2,156.73 -51.01,-52.77 c -41.59,-43.11 -90.86,-76.11 -140.4,-96.12 v 259.97 l -56.59,54.73 H 4315.91 V 3803.1 h -370.3 v 281.41 l -56.54,54.73 h -157.7 v -927.28 l 56.57,-54.77 h 157.67 v 442.58 h 370.3 v -387.81 l 56.61,-54.77"
         inkscape:connector-curvature="0" /><path
         id="path22"
         style="fill:#eb1a2c;fill-opacity:1;fill-rule:nonzero;stroke:none"
         d="m 2187.08,2919.92 c 49.59,-8.2 91.59,-23.46 124.89,-44.99 12.58,-18.52 21.76,-39.09 26.81,-61.84 9.78,-64.06 -25.91,-151.21 -112.91,-195.78 -39.39,9.95 -80.26,14.48 -122.96,13.81 33.27,94.57 68.64,174.69 119.34,203.18 l 2.24,1.54 c 4.38,3.75 17.72,15.11 14.65,29.13 -0.88,3.76 -2.81,7.75 -6.48,11.11 z m -93.15,-440.46 c 13.67,-14.23 34.04,-21.78 58.01,-20.48 l 5.32,0.3 c 43.63,2.58 81.22,7.71 112.06,15.47 13.59,-3.71 25.86,-8.83 37.16,-14.88 9.33,-15.8 16.56,-33.7 21.12,-54.19 12.43,-55.75 -4.58,-121.59 -45.57,-176.27 -63.44,-84.77 -175.54,-136.66 -315.15,-146.13 -40.04,-0.92 -79.01,2.63 -116.84,8.3 68.37,83.25 128.03,191.09 177.88,321.79 12.19,32.14 23.32,64.52 34.12,96.64 z m 307.62,460.15 c -75.96,77.24 -204.47,124.09 -356.98,124.09 -14.83,0 -30.03,-0.39 -45.53,-1.27 -235.99,-13.84 -474.01,-135.88 -606.4,-311.06 -74.5,-98.69 -104.8,-201.32 -85.4,-288.91 4.23,-18.97 10.96,-36.21 18.88,-52.43 0.28,-0.65 0.61,-1.29 0.89,-1.92 3.8,-7.53 7.78,-14.75 12.28,-21.59 3.21,-5.07 6.6,-9.95 10.23,-14.61 1.57,-2.06 3.05,-4.27 4.74,-6.25 3.9,-4.7 8.03,-9.12 12.3,-13.37 l 52.64,-50.45 c 4.28,-4.36 8.71,-8.44 13.32,-12.3 0.99,-0.86 2.06,-1.57 3.08,-2.39 6.02,-4.83 12.33,-9.25 18.83,-13.21 4.58,-2.84 9.26,-5.29 14.07,-7.68 2.74,-1.34 5.52,-2.6 8.31,-3.79 23.71,-10.28 49.55,-15.88 77.04,-14.48 29.57,1.65 55.91,13.47 68.91,30.63 7.48,9.87 10,20.72 7.63,31.52 -2.01,8.97 -6.85,15.37 -13.12,20.63 l -55.73,53.47 c -6.22,5.57 -13.9,9.89 -21.98,14.27 -0.55,0.28 -1.15,0.63 -1.67,0.91 -7.72,14.21 -14.67,31.79 -19.88,55.09 -14.29,64.16 11.42,145.78 70.38,223.94 105.81,139.93 287.82,237.04 463.9,247.29 14.9,0.89 29.19,1.33 43.08,1.33 1.17,0 2.29,-0.07 3.44,-0.09 -120.84,-52.79 -230.08,-278.47 -287.88,-418.85 -6.95,-16.92 -13.96,-34.29 -21.06,-51.86 -44.25,-109.64 -94.37,-233.55 -165.42,-315.05 -62.12,13.8 -134.95,27.77 -208.8,23.47 -89.7,-5.2 -129.5,-33.98 -147,-57.19 -14.77,-19.6 -20.03,-43.01 -15,-66.02 5,-22.44 16,-39.57 30.13,-52.74 l 55.25,-52.95 c 41.18,-40.25 111.64,-44.3 137.28,-44.3 5.75,0 11.13,0.15 16.1,0.49 l 13.51,0.78 c 82.41,6.06 160.75,36.59 232.83,90.73 l 1.24,-0.45 c 88.18,-26.97 188.74,-57.73 301.61,-51.08 192.64,11.17 351.47,81.56 435.81,193.23 49.86,65.98 68.9,140.37 53.56,209.32 -12.18,55 -43.67,105.45 -89.53,145.71 -0.46,0.39 -0.85,0.86 -1.34,1.28 -0.5,0.43 -0.91,0.92 -1.4,1.36 -0.52,0.43 -0.92,0.9 -1.42,1.34 -0.46,0.41 -0.87,0.89 -1.35,1.33 -0.49,0.42 -0.92,0.89 -1.4,1.31 -0.5,0.45 -0.93,0.95 -1.44,1.4 -0.47,0.4 -0.9,0.87 -1.35,1.28 -0.48,0.43 -0.87,0.89 -1.35,1.32 -0.52,0.44 -0.96,0.93 -1.48,1.39 -0.44,0.41 -0.84,0.88 -1.36,1.31 -0.47,0.43 -0.89,0.91 -1.41,1.34 -0.48,0.43 -0.9,0.9 -1.38,1.33 -0.96,0.87 -1.79,1.82 -2.77,2.67 -0.48,0.43 -0.94,0.93 -1.41,1.37 -0.49,0.42 -0.94,0.9 -1.42,1.32 -0.93,0.86 -1.75,1.79 -2.7,2.63 -0.49,0.44 -0.95,0.94 -1.45,1.37 -0.96,0.88 -1.84,1.86 -2.83,2.74 -0.96,0.84 -1.75,1.76 -2.71,2.59 -0.48,0.44 -0.91,0.91 -1.39,1.33 -0.48,0.44 -0.93,0.92 -1.44,1.35 -0.97,0.88 -1.81,1.83 -2.77,2.69 -0.45,0.41 -0.85,0.86 -1.29,1.26 -0.52,0.46 -0.96,0.97 -1.48,1.41 -0.48,0.41 -0.87,0.86 -1.32,1.27 -0.37,0.33 -0.71,0.69 -1.05,1.01 102.82,58.84 149.39,145.43 128.03,241.62 -10.29,46.48 -34.43,88.11 -69.52,123.36 l -55.69,53.41"
         inkscape:connector-curvature="0" /><path
         id="path24"
         style="fill:#eb1a2c;fill-opacity:1;fill-rule:nonzero;stroke:none"
         d="m 3324.39,2587.65 c -0.66,-0.04 -1.33,0.02 -2.01,-0.02 46.83,95.65 119.18,174.39 189.72,178.48 4.12,0.24 8.63,0.09 13.21,-0.29 2.49,-49.48 -53.57,-169.56 -200.92,-178.17 z M 4854.1,2871 c -4.42,4.21 -10.24,5.11 -17,-0.04 -49.23,-44.53 -98.78,-60.69 -145.63,-63.46 -2.46,-0.14 -4.82,0.21 -7.24,0.16 -0.51,7.24 -1.15,14.29 -2.01,20.85 -7.71,39.37 -21.19,65.8 -38.57,82.55 l -54.95,52.62 c -16.96,17.47 -37.9,25.2 -61.29,25.79 -76.6,3.15 -94.38,-62.4 -87.17,-103.7 6.07,-35.63 24.39,-66.81 48.94,-91.96 l -2.58,-13.37 c -51.33,-274.02 -192.99,-432.02 -260.42,-435.93 -2.87,-0.18 -5.45,-0.16 -8.12,-0.17 -0.33,17.54 2.35,40.05 10.95,69.24 0,0 114.23,404.16 117,414.3 5.58,20.44 0.97,24.93 -1.11,26.93 l -55.61,53.47 c -4.58,5.93 -13.56,7.7 -26.53,6.97 l -61.97,-3.59 c -26.27,-1.58 -41.05,-11.87 -48.79,-37 l -78.15,-281.26 c -32.51,-109.95 -159.74,-272.76 -217.86,-276.12 -1.88,-0.12 -3.57,0.19 -5.42,0.2 -0.76,11.11 0.14,23.67 3.67,38.24 l 114.64,450.24 c 3.16,13.4 2.26,22.08 -3.14,27.1 l -55.68,53.42 c -4.38,5.47 -12.89,7.49 -26.31,6.68 l -61.92,-3.54 c -26.33,-1.6 -41.06,-11.87 -46.92,-36.88 l -72.26,-285.49 c -0.39,-0.48 -0.71,-0.7 -0.89,-1.2 -101.37,-193.55 -249.34,-272.25 -343.06,-277.76 -25.02,-1.45 -47.83,2.34 -67.7,11.01 -6.12,11.86 -11.33,24.84 -14.66,39.89 -11.54,51.89 -3.01,116.62 18,179.88 l 16.45,-15.7 c 16.41,-17.11 49.52,-30.41 83.54,-28.49 236.47,13.8 312.05,169.82 294.07,250.34 -6.07,27.46 -20.37,49.33 -40.11,65.69 l -55.73,53.46 c -32.73,27.97 -81,40.44 -132.1,37.47 -149.99,-8.73 -308.02,-179.04 -368.57,-351.29 -54.83,-110.88 -148.99,-274.89 -207.16,-279.2 -10.15,104.72 142.78,309.25 113.08,443.16 -5.11,22.87 -16.36,43.09 -32.7,59.18 l -55.61,53.4 c -26.46,26.93 -66.99,42.64 -117.76,39.69 -17,-1.01 -28.14,-3.5 -37.69,-5.66 1.57,10.83 2.93,21.99 0.56,32.49 -1.52,6.99 -4.29,13.17 -9.03,17.99 l -55.55,53.26 c -6.58,7.78 -17.74,12.43 -36.65,11.32 -69.36,-4.1 -93.39,-75.56 -83.43,-120.45 4.94,-22.32 14.18,-43.63 32.78,-59.44 0.51,-0.43 39.56,18.7 40.04,18.3 0.51,-0.45 0.95,-0.95 1.44,-1.4 0.51,-0.42 0.91,-0.89 1.39,-1.32 0.48,-0.42 0.88,-0.9 1.39,-1.32 0.48,-0.43 0.88,-0.91 1.35,-1.32 0.51,-0.45 0.94,-0.94 1.47,-1.38 0.45,-0.43 0.88,-0.91 1.37,-1.32 0.5,-0.44 0.89,-0.9 1.41,-1.33 0.48,-0.45 0.9,-0.93 1.4,-1.37 0.45,-0.4 0.85,-0.87 1.33,-1.27 0.49,-0.45 0.94,-0.93 1.44,-1.37 0.49,-0.44 0.92,-1.81 1.39,-1.34 12.74,12.52 0.88,-0.91 1.38,-1.33 0.48,-0.42 0.88,-0.89 1.36,-1.31 0.52,-0.44 0.93,-0.94 1.45,-1.38 0.48,-0.41 0.84,-0.87 1.32,-1.27 0.51,-0.45 0.91,-0.94 1.44,-1.38 0.49,-0.44 0.91,-0.93 1.45,-1.36 0.45,-0.43 -24.26,-33.51 -23.96,-33.77 -30.03,-114.81 -139.01,-215.53 -139.01,-215.53 -6.69,-13.88 -3.51,-25.84 3.59,-33.49 l 55.59,-53.42 c 11.56,-11.6 31.97,-15.28 42.01,4.36 0,0 123.67,132.69 162.28,258.13 10.05,0.55 23.03,2.43 34.48,3.63 -7.41,-110.94 -143.77,-312.58 -108.13,-472.98 6.95,-31.17 20.35,-58.5 41.03,-77.49 l 55.68,-53.45 c 20.46,-19.47 48.22,-30.58 84.36,-28.42 83.07,4.82 163.14,100.6 222.28,194.67 12.22,-22.04 27.68,-41.65 45.96,-58.15 l 55.01,-53.02 c 43.4,-40.07 102.59,-62.51 169.21,-58.67 103.83,6.11 209.13,74.77 293.44,167.46 6.86,-18.2 16.75,-34.51 29.84,-47.65 l 55.76,-53.46 c 22.61,-23.41 54.78,-37.26 96.57,-34.86 80.38,4.67 148.86,62.68 202.59,134.63 6.56,-11.35 14.19,-21.59 23.59,-29.86 l 55.69,-53.42 c 22.89,-20.81 54.43,-31.72 95.38,-29.33 157.48,9.17 354.58,242.31 442.76,529.91 20.01,-4.53 41.11,-5.19 63.63,-3.89 67.53,3.89 123.64,33.75 179.25,82.46 19.47,15.42 16.64,50.16 4.25,61.34 L 4854.1,2871"
         inkscape:connector-curvature="0" /><path
         id="path26"
         style="fill:#eb1a2c;fill-opacity:1;fill-rule:nonzero;stroke:none"
         d="m 2812.09,3281.77 c 86.66,-86.78 206.43,-140.46 338.75,-140.46 264.49,0 478.86,214.42 478.86,478.89 0,0.17 0,0.39 0,0.58 h -0.05 c -0.07,44.29 -6.47,86.96 -17.85,127.59 l -56.63,54.73 c -155.89,2.99 -319.92,-25.36 -488.65,-129.38 l 82.81,-134.32 56.57,-54.67 c 63.29,39.01 125.51,64.95 187.19,81.55 -44.5,-122.21 -161.42,-209.89 -298.85,-209.89 -71.92,0 -138.14,24.24 -191.53,64.6 -43.9,54.61 -70.32,123.84 -70.32,199.21 0,175.61 142.86,318.54 318.45,318.54 86.18,0 163.93,-34.89 221.3,-90.74 l 107.42,119.62 -56.6,54.73 c -85.69,81.3 -201.22,131.41 -328.72,131.41 -264.45,0 -478.85,-214.42 -478.85,-478.85 0,-132.46 53.78,-252.31 140.69,-339.01 l 56.01,-54.13"
         inkscape:connector-curvature="0" /><path
         id="path28"
         style="fill:#faf7e8;fill-opacity:1;fill-rule:nonzero;stroke:none"
         d="m 1835.34,4387.3 c 20.97,0 37.22,4.95 59.52,11.63 v 77.98 c -14.09,-16.24 -36.06,-26.56 -58.16,-26.56 -41.94,0 -70.2,28.55 -70.2,68.01 0,38.83 27.89,69.33 69.18,69.33 23.12,0 45.45,-9.57 59.18,-27.52 v 77.97 c -19.95,8 -39.97,12.62 -61.56,12.62 -36.45,0 -73.3,-15.29 -98.77,-40.48 -24.78,-24.55 -38.22,-57.4 -38.22,-91.56 0,-37.13 13.09,-69.66 41.66,-94.61 26.83,-23.5 61.28,-36.81 97.37,-36.81"
         inkscape:connector-curvature="0" /><path
         id="path30"
         style="fill:#faf7e8;fill-opacity:1;fill-rule:nonzero;stroke:none"
         d="m 2128.88,4589.36 c 40.24,0 73.3,-31.49 73.3,-66 0,-43.19 -33.06,-74.64 -73.3,-74.64 -40.28,0 -73.31,31.45 -73.31,74.64 0,34.51 33.03,66 73.31,66 z m 0,-203.68 c 83.26,0 143.48,57.05 143.48,138 0,75.63 -68.81,128.74 -143.48,128.74 -74.64,0 -143.48,-53.11 -143.48,-128.74 0,-80.95 60.21,-138 143.48,-138"
         inkscape:connector-curvature="0" /><path
         id="path32"
         style="fill:#faf7e8;fill-opacity:1;fill-rule:nonzero;stroke:none"
         d="m 2513.98,4449.06 h -80.89 v 195.08 h -67.37 v -250.18 h 148.26 v 55.1"
         inkscape:connector-curvature="0" /><path
         id="path34"
         style="fill:#faf7e8;fill-opacity:1;fill-rule:nonzero;stroke:none"
         d="m 2665.32,4449.06 v 140.01 h 15.89 c 43.33,0 73.93,-25.24 73.93,-70.02 0,-48.77 -34.33,-69.99 -74.65,-69.99 z m 160.06,69.99 c 0,70.31 -59.57,125.09 -131.77,125.09 h -95.69 v -250.18 h 95.69 c 71.85,0 131.77,54.76 131.77,125.09"
         inkscape:connector-curvature="0" /><path
         id="path36"
         style="fill:#faf7e8;fill-opacity:1;fill-rule:nonzero;stroke:none"
         d="m 3182.95,4443.77 v 53.66 h 6.87 c 22.05,0 55.36,3.01 55.36,-27.15 0,-27.55 -33.74,-26.51 -53.63,-26.51 z m 0,150.61 h 4.84 c 18.16,0 39.25,-1.36 39.25,-24.25 0,-21.21 -18.6,-24.25 -36.51,-24.25 h -7.58 z m 130.4,-130.75 c 0,34.84 -15.77,59.06 -53.01,63.67 v 0.69 c 20.99,10.3 28.65,28.54 28.65,51.09 0,47.77 -31.03,65.06 -77.12,65.06 h -96.32 v -250.18 h 103.8 c 47.51,0 94,17.29 94,69.67"
         inkscape:connector-curvature="0" /><path
         id="path38"
         style="fill:#faf7e8;fill-opacity:1;fill-rule:nonzero;stroke:none"
         d="m 3477.85,4594.38 h 6.49 c 22.04,0 46.84,-4.04 46.84,-31.2 0,-27.23 -24.8,-31.2 -46.84,-31.2 h -6.49 z m 0,-104.19 h 0.7 l 63.7,-96.23 h 83.88 l -81.56,102.51 c 36.83,6.32 56.84,36.18 56.84,70.68 0,53.43 -38.87,76.99 -90.21,76.99 h -100.84 v -250.18 h 67.49 v 96.23"
         inkscape:connector-curvature="0" /><path
         id="path40"
         style="fill:#faf7e8;fill-opacity:1;fill-rule:nonzero;stroke:none"
         d="m 3853.96,4449.06 h -80.16 v 43.1 h 75.98 v 55.11 h -75.98 v 41.8 h 80.16 v 55.07 h -147.61 v -250.18 h 147.61 v 55.1"
         inkscape:connector-curvature="0" /><path
         id="path42"
         style="fill:#faf7e8;fill-opacity:1;fill-rule:nonzero;stroke:none"
         d="m 4076.24,4393.96 50.93,144.97 h 0.66 l 45.45,-144.97 h 68.83 l 82.92,250.18 h -70.19 l -48.87,-161.59 h -0.67 l -50.97,161.59 h -53.63 l -54.36,-161.59 h -0.7 l -45.11,161.59 h -70.16 l 77.46,-250.18 h 68.41"
         inkscape:connector-curvature="0" /><path
         id="path44"
         style="fill:#faf7e8;fill-opacity:1;fill-rule:nonzero;stroke:none"
         d="m 1850.83,1618.7 c 0,-114.89 83.94,-199.44 200.29,-199.44 35.33,0 67.85,8 102.11,23.95 v 113.27 c -28.73,-30.82 -56.23,-45.72 -91.07,-45.72 -62.87,0 -103.64,47.3 -103.64,105.78 0,64.36 41.35,110.1 103.64,110.1 34.84,0 62.34,-14.92 91.07,-45.74 v 113.25 c -34.26,16.01 -66.78,23.92 -102.11,23.92 -116.35,0 -200.29,-84.54 -200.29,-199.37"
         inkscape:connector-curvature="0" /><path
         id="path46"
         style="fill:#faf7e8;fill-opacity:1;fill-rule:nonzero;stroke:none"
         d="m 2482.33,1506.53 c -62.92,0 -103.18,48.85 -103.18,111.6 0,62.23 42.45,111.68 103.18,111.68 60.1,0 103.19,-49.95 103.19,-111.68 0,-62.16 -41.99,-111.6 -103.19,-111.6 z m 0,311.01 c -55.25,0 -109.29,-21.24 -149.03,-58.48 -40.2,-37.74 -61.73,-86.67 -61.73,-140.93 0,-61.13 27,-115.35 76.66,-153.64 38.07,-29.25 86.12,-45.71 134.1,-45.71 55.08,0 109.18,20.75 149.49,58.42 39.69,37.28 61.2,86.74 61.2,140.93 0,53.75 -20.99,103.19 -61.2,140.93 -39.78,37.24 -94.41,58.48 -149.49,58.48"
         inkscape:connector-curvature="0" /><path
         id="path48"
         style="fill:#faf7e8;fill-opacity:1;fill-rule:nonzero;stroke:none"
         d="m 2813.15,1428.85 h 104.77 v 149.44 h 129.1 v 81.34 h -129.1 v 65.95 h 136.85 v 83.46 h -241.62 v -380.19"
         inkscape:connector-curvature="0" /><path
         id="path50"
         style="fill:#faf7e8;fill-opacity:1;fill-rule:nonzero;stroke:none"
         d="m 3197.31,1428.85 h 104.73 v 149.44 h 129.15 v 81.34 h -129.15 v 65.95 h 136.84 v 83.46 h -241.57 v -380.19"
         inkscape:connector-curvature="0" /><path
         id="path52"
         style="fill:#faf7e8;fill-opacity:1;fill-rule:nonzero;stroke:none"
         d="m 3576.73,1428.85 h 241.66 v 85.09 h -136.8 v 64.35 h 129.09 v 81.34 h -129.09 v 65.95 h 136.8 v 83.46 h -241.66 v -380.19"
         inkscape:connector-curvature="0" /><path
         id="path54"
         style="fill:#faf7e8;fill-opacity:1;fill-rule:nonzero;stroke:none"
         d="m 3958.88,1428.85 h 241.7 v 85.09 h -136.79 v 64.35 h 129.09 v 81.34 h -129.09 v 65.95 h 136.79 v 83.46 h -241.7 v -380.19"
         inkscape:connector-curvature="0" /><path
         id="path56"
         style="fill:#faf7e8;fill-opacity:1;fill-rule:nonzero;stroke:none"
         d="m 1443.88,2043.51 c -6.01,-0.35 -11.5,-0.49 -16.59,-0.49 -38.04,0 -42.68,9.49 -44.74,17.97 0.6,6.89 5.29,20.47 57.07,23.47 33.43,1.9 67.37,-1.18 108.35,-9.36 -32.33,-19.06 -66.67,-29.42 -104.09,-31.59 z m 540.69,-56.82 c 192.64,11.16 351.42,81.62 435.78,193.23 49.89,65.99 68.82,140.33 53.56,209.37 -16.28,73.23 -66.64,138.47 -139.9,182.24 108.3,58.87 157.64,147.43 135.75,246.02 -32.7,147.29 -203.64,246.15 -425.19,246.15 -14.83,0 -30.03,-0.39 -45.53,-1.27 -235.99,-13.84 -474.01,-135.88 -606.4,-311.06 -74.5,-98.69 -104.8,-201.32 -85.4,-288.91 22.14,-99.41 98.4,-164.36 189.61,-159.7 29.47,1.7 55.87,13.46 68.81,30.69 7.42,9.72 10.07,20.66 7.75,31.41 -3.95,17.49 -18.48,25.3 -33.85,33.65 -25.9,13.99 -61.4,33.24 -78.63,110.78 -14.25,64.17 11.36,145.73 70.45,223.88 105.8,140 287.74,237.08 463.87,247.33 14.81,0.86 29.23,1.3 43.02,1.3 167.23,0 276.74,-61.85 300.51,-168.71 9.78,-64.06 -25.91,-151.21 -112.91,-195.78 -45.95,11.6 -93.74,16.3 -144.27,13.37 -20.77,-1.24 -39.29,-10.11 -50.68,-24.42 -9.27,-11.61 -13.03,-25.9 -10.48,-40.95 7.48,-33.6 36.54,-53.67 74.47,-51.56 l 5.32,0.31 c 43.6,2.52 81.24,7.71 112.03,15.41 62.12,-16.99 100.89,-58.62 115.34,-123.79 12.43,-55.75 -4.58,-121.59 -45.57,-176.27 -63.44,-84.77 -175.54,-136.66 -315.15,-146.13 -72.67,-1.65 -142.14,10.62 -206.77,25.57 82.31,87.3 153.1,208.04 210.72,359.29 17.45,45.79 32.93,92.47 47.89,137.63 42.16,127.02 81.84,247.02 146.51,283.24 l 2.26,1.55 c 4.3,3.76 17.69,15.14 14.58,29.14 -2.15,9.47 -10.28,20.45 -39.12,18.89 -137.92,-8.04 -267.24,-273.15 -332.02,-430.46 -6.95,-16.92 -13.96,-34.29 -21.06,-51.86 -44.25,-109.64 -94.37,-233.55 -165.42,-315.05 -62.12,13.8 -134.95,27.77 -208.8,23.47 -89.7,-5.2 -129.5,-33.98 -147,-57.19 -14.77,-19.6 -20.03,-43.01 -15,-66.02 19.69,-88.3 131.81,-95.17 165.62,-95.17 5.75,0 11.19,0.13 16.13,0.4 l 13.43,0.76 c 82.47,6.08 160.81,36.63 232.83,90.74 l 1.35,-0.38 c 88.18,-26.94 188.6,-57.83 301.56,-51.14"
         inkscape:connector-curvature="0" /><path
         id="path58"
         style="fill:#faf7e8;fill-opacity:1;fill-rule:nonzero;stroke:none"
         d="m 4837.1,2870.96 c -49.23,-44.53 -98.78,-60.69 -145.63,-63.46 -22.51,-1.29 -44.02,1.27 -65.91,5.67 3.98,24.87 2.29,49.4 -0.4,70.14 -15.13,76.75 -51.81,105 -97.75,106.16 -76.6,3.15 -94.38,-62.4 -87.17,-103.7 6.07,-35.63 24.39,-66.81 48.94,-91.96 l -2.58,-13.37 c -51.33,-274.02 -192.99,-432.02 -260.42,-435.93 -35.78,-2.05 -56.53,6.23 -64.5,41.71 -2.22,18.86 -0.61,45.42 10.35,82.14 0,0 113.67,402.22 117.34,416.2 8.17,31.07 -9.75,31.63 -26.61,30.69 l -61.97,-3.59 c -26.27,-1.58 -41.05,-11.87 -48.79,-37 l -78.15,-281.26 c -32.51,-109.95 -159.74,-272.76 -217.86,-276.12 -43.29,-2.55 -74.73,27.89 -58.89,93.2 l 114.75,450.24 c 5.87,25.01 -1.9,34.02 -28.1,32.44 l -61.92,-3.54 c -26.33,-1.6 -41.06,-11.87 -46.92,-36.88 l -72.26,-285.49 c -0.39,-0.48 -0.71,-0.7 -0.89,-1.2 -101.37,-193.55 -249.34,-272.25 -343.06,-277.76 -69.42,-4.02 -122.78,30.8 -139.46,105.63 -34.09,153.47 104.46,419.37 235.83,426.98 24.4,1.41 60.25,-6.05 69.3,-47.18 9.66,-43.1 -44.14,-176.96 -199.98,-186.07 -22.42,-1.27 -53.24,2.59 -75.77,1.28 -11.19,-0.65 -15.6,-6.56 -13.96,-14.06 5.34,-24.31 57.62,-47.8 102.66,-45.2 236.39,13.75 311.9,169.79 294.05,250.28 -16.19,72.98 -90.14,106.59 -170.91,101.89 -149.99,-8.73 -308.02,-179.04 -368.57,-351.29 -55,-111.2 -149.56,-275.91 -207.67,-279.33 -30.01,-1.69 -48.78,14.31 -55.51,44.17 -22.37,101.03 142.76,315.35 112.01,453.85 -13.31,59.86 -68.26,102.23 -148.98,97.54 -30.01,-1.77 -41.88,-8.22 -58.81,-9.18 -22.41,-1.33 -34.27,9.39 -37.72,24.36 -4.19,18.66 7.39,44.01 2.33,66.49 -3.63,16.79 -14.15,29.49 -44.16,27.73 -69.36,-4.1 -93.39,-75.56 -83.43,-120.45 7.88,-35.57 26.61,-68.6 76.93,-80.85 -28.73,-119.18 -143.3,-232.36 -143.3,-232.36 -24.21,-31.27 18.38,-54.26 44.12,-27.79 0,0 123.71,132.68 162.28,258.13 13.09,0.75 31.47,3.73 44.58,4.5 31.9,1.85 41.93,-8.88 45.67,-25.79 22.45,-101 -145.92,-326.91 -106.83,-502.82 13.79,-61.75 52.68,-108.74 123.95,-104.58 96.81,5.58 189.53,134.47 249.79,240.37 0.96,-12.2 2.49,-24.3 5.17,-36.03 24.44,-110.42 119.32,-186.37 237.55,-179.56 126.46,7.43 255.12,107.68 345.37,231.05 -24.03,-97.94 19.25,-205.95 130.34,-199.51 97.53,5.72 177.59,89.9 234.92,182.36 -0.28,-15.21 1.52,-32.17 4.48,-45.2 12.48,-73.21 57.02,-119.88 137.67,-115.24 157.63,9.26 354.71,242.45 442.88,529.99 19.98,-4.5 41.1,-5.25 63.63,-3.92 67.47,3.97 123.53,33.75 179.32,82.5 25.85,20.49 12.93,78.48 -11.37,59.98"
         inkscape:connector-curvature="0" /><path
         id="path60"
         style="fill:#eb1a2c;fill-opacity:1;fill-rule:nonzero;stroke:none"
         d="m 2457.46,4139.24 56.64,-54.73 v -927.32 h -157.71 l -56.58,54.77 v 927.28 h 157.65"
         inkscape:connector-curvature="0" /><path
         id="path62"
         style="fill:#faf7e8;fill-opacity:1;fill-rule:nonzero;stroke:none"
         d="m 2457.46,4139.24 h -157.65 v -927.28 h 157.65 v 927.28"
         inkscape:connector-curvature="0" /><path
         id="path64"
         style="fill:#faf7e8;fill-opacity:1;fill-rule:nonzero;stroke:none"
         d="m 2615.39,3674.91 c 0,-264.48 214.4,-478.87 478.85,-478.87 264.46,0 478.85,214.39 478.85,478.87 0,0 0,0.35 0,0.58 -0.06,44.28 -6.56,86.97 -17.92,127.61 -155.89,2.99 -319.92,-25.36 -488.65,-129.38 l 82.81,-134.32 c 88.56,54.65 175.06,84.02 260.91,97.31 -18.94,-157.63 -153.29,-280.32 -316,-280.32 -175.65,0 -318.48,142.86 -318.48,318.52 0,175.63 142.83,318.5 318.48,318.5 86.12,0 163.95,-34.85 221.27,-90.68 l 107.45,119.62 c -85.69,81.3 -201.22,131.41 -328.72,131.41 -264.45,0 -478.85,-214.42 -478.85,-478.85"
         inkscape:connector-curvature="0" /><path
         id="path66"
         style="fill:#eb1a2c;fill-opacity:1;fill-rule:nonzero;stroke:none"
         d="m 2103.22,4139.24 56.64,-54.73 v -927.32 h -157.68 l -56.56,54.77 v 387.84 h -370.34 v -442.61 h -157.6 l -56.69,54.77 v 927.28 h 157.71 l 56.58,-54.73 V 3803.1 h 370.34 v 336.14"
         inkscape:connector-curvature="0" /><path
         id="path68"
         style="fill:#faf7e8;fill-opacity:1;fill-rule:nonzero;stroke:none"
         d="m 1518.7,3654.5 h 426.92 v -442.54 h 157.6 v 927.28 h -157.6 V 3803.1 H 1518.7 v 336.14 h -157.71 v -927.28 h 157.71 v 442.54"
         inkscape:connector-curvature="0" /><path
         id="path70"
         style="fill:#faf7e8;fill-opacity:1;fill-rule:nonzero;stroke:none"
         d="m 3731.37,4139.24 v -927.28 h 157.7 v 442.54 h 426.84 v -442.54 h 157.62 v 446.21 c 105.81,13.06 216.15,70.93 302.64,160.45 l 50.89,52.75 -105.53,102.06 -51.01,-52.77 c -57.54,-59.53 -129.73,-100.25 -196.99,-113.42 v 332 H 4315.91 V 3803.1 h -426.84 v 336.14 h -157.7"
         inkscape:connector-curvature="0" /><path
         id="path72"
         style="fill:#faf7e8;fill-opacity:1;fill-rule:nonzero;stroke:none"
         d="m 4748.89,2575.37 h 10.56 c 11.59,0 16.29,1.47 16.29,9.97 0,6.46 -3.82,9.39 -13.94,9.39 h -12.91 z m 0,-36.09 h -9.68 v 63.67 h 24.2 c 14.67,0 22.01,-6.02 22.01,-18.05 0,-11.43 -7.48,-16.28 -15.41,-17.45 l 17.17,-28.17 h -11.59 l -16.87,27.87 h -9.83 z m 55.31,32.27 c 0,25.68 -19.22,45.48 -44.16,45.48 -25.23,0 -44.45,-19.8 -44.45,-45.48 0,-26.11 19.22,-45.77 44.45,-45.77 24.94,0 44.16,19.66 44.16,45.77 z m -99.17,0 c 0,30.81 25.08,54.28 55.01,54.28 29.78,0 54.72,-23.47 54.72,-54.28 0,-31.09 -24.94,-54.57 -54.72,-54.57 -29.93,0 -55.01,23.48 -55.01,54.57"
         inkscape:connector-curvature="0" /></g></g></svg>