<?xml version="1.0" encoding="UTF-8" standalone="no"?>
<svg
   xmlns:dc="http://purl.org/dc/elements/1.1/"
   xmlns:cc="http://creativecommons.org/ns#"
   xmlns:rdf="http://www.w3.org/1999/02/22-rdf-syntax-ns#"
   xmlns:svg="http://www.w3.org/2000/svg"
   xmlns="http://www.w3.org/2000/svg"
   xmlns:sodipodi="http://sodipodi.sourceforge.net/DTD/sodipodi-0.dtd"
   xmlns:inkscape="http://www.inkscape.org/namespaces/inkscape"
   width="444.008"
   height="271.19165"
   viewBox="0 0 444.00899 271.18806"
   version="1.1"
   id="svg283"
   sodipodi:docname="logo-Samsung-Dark_Font.svg"
   inkscape:version="0.92.2 5c3e80d, 2017-08-06">
  <metadata
     id="metadata289">
    <rdf:RDF>
      <cc:Work
         rdf:about="">
        <dc:format>image/svg+xml</dc:format>
        <dc:type
           rdf:resource="http://purl.org/dc/dcmitype/StillImage" />
        <dc:title></dc:title>
      </cc:Work>
    </rdf:RDF>
  </metadata>
  <defs
     id="defs287" />
  <sodipodi:namedview
     pagecolor="#ffffff"
     bordercolor="#666666"
     borderopacity="1"
     objecttolerance="10"
     gridtolerance="10"
     guidetolerance="10"
     inkscape:pageopacity="0"
     inkscape:pageshadow="2"
     inkscape:window-width="1147"
     inkscape:window-height="508"
     id="namedview285"
     showgrid="false"
     fit-margin-top="60"
     fit-margin-bottom="60"
     fit-margin-left="0"
     fit-margin-right="0"
     inkscape:zoom="0.72971493"
     inkscape:cx="222.0045"
     inkscape:cy="135.59683"
     inkscape:window-x="398"
     inkscape:window-y="22"
     inkscape:window-maximized="0"
     inkscape:current-layer="svg283" />
  <path
     d="m 87.803,59.998964 c 37.431,0 62.865,25.434 62.865,62.864996 v 25.462 l -0.049,2.814 c -1.244,35.886 -26.331,60.051 -62.816,60.051 H 62.865 C 25.434,211.19096 0,186.57496 0,149.14396 v -27.099 C 0,85.731964 23.938,61.479964 59.544,60.064964 l 3.32,-0.066 h 24.94 z"
     id="path273"
     inkscape:connector-curvature="0"
     style="fill:#706cf5" />
  <g
     id="g277"
     style="fill:#ffffff"
     transform="translate(0,59.998964)">
    <path
       d="m 97.17,108.671 a 39.448,39.448 0 0 1 -21.84,6.556 c -15.537,0 -28.986,-8.941 -35.482,-21.958 -3.282,-1.729 -6.288,-3.534 -8.975,-5.381 5.38,19.5 23.246,33.82 44.456,33.82 12.595,0 24.01,-5.049 32.333,-13.234 -3.25,0.271 -6.767,0.339 -10.492,0.197 z M 36.553,83.822 C 33.887,82.189 31.467,80.509 29.327,78.809 21.39,72.503 17.312,65.911 18.835,60.315 c 1.52,-5.581 8.342,-9.192 18.334,-10.614 8.296,-12.203 22.292,-20.218 38.16,-20.218 24.455,0 44.463,19.036 46.016,43.098 7.934,6.304 12.01,12.895 10.487,18.49 -1.527,5.61 -8.413,9.23 -18.49,10.636 -2.71,0.379 -5.651,0.597 -8.781,0.65 -10.203,0.175 -22.41,-1.398 -35.16,-4.868 C 56.616,94.009 45.269,89.161 36.553,83.822 Z m 73.123,11.559 a 39.436,39.436 0 0 0 5.284,-19.539 l 0.001,-0.246 c 0,-21.888 -17.744,-39.631 -39.632,-39.631 -14.552,0 -27.272,7.843 -34.164,19.533 a 39.448,39.448 0 0 0 -5.467,20.067 c 8.256,5.525 20.733,10.973 35.165,14.901 14.897,4.055 28.819,5.658 38.813,4.915 z m 7.92,-1.32 c 3.975,-1.166 6.537,-3.011 7.219,-5.518 0.695,-2.55 -0.637,-5.497 -3.578,-8.575 l -0.061,0.611 a 45.819,45.819 0 0 1 -3.58,13.483 z M 33.422,56.33 33.756,55.62 c -4.689,1.154 -7.682,3.104 -8.428,5.844 -0.738,2.711 0.814,5.87 4.154,9.16 a 45.813,45.813 0 0 1 3.94,-14.294 z"
       id="path275"
       inkscape:connector-curvature="0" />
  </g>
  <g
     id="g281"
     style="fill:#231f20"
     transform="translate(0,59.998964)">
    <path
       d="m 308.26,48.786 -0.294,-17.028 h 5.373 v 21.475 h -7.725 l -5.362,-17.621 h -0.12 l 0.3,17.62 h -5.33 V 31.759 h 8.05 l 4.991,17.028 h 0.117 z M 210.63,33.76 207.661,53.456 h -5.863 l 4.02,-21.697 h 9.657 l 3.998,21.697 h -5.827 l -2.895,-19.695 h -0.121 z m 25.292,14.588 2.681,-16.59 h 8.845 l 0.482,21.697 h -5.431 l -0.14,-19.511 -0.117,0.005 -3.624,19.506 h -5.502 l -3.628,-19.511 h -0.121 l -0.137,19.51 h -5.424 l 0.48,-21.695 h 8.848 l 2.669,16.59 h 0.119 z M 192.666,47.33 c 0.214,0.524 0.143,1.2 0.043,1.61 -0.177,0.707 -0.665,1.446 -2.112,1.446 -1.355,0 -2.183,-0.776 -2.183,-1.958 l -0.004,-2.106 h -5.818 V 48 c 0,4.838 3.809,6.294 7.882,6.294 3.932,0 7.155,-1.334 7.674,-4.952 0.265,-1.878 0.069,-3.107 -0.022,-3.566 -0.92,-4.545 -9.152,-5.89 -9.766,-8.438 a 2.752,2.752 0 0 1 -0.025,-1.134 c 0.157,-0.697 0.627,-1.457 1.983,-1.457 1.274,0 2.017,0.784 2.017,1.964 v 1.339 h 5.415 v -1.517 c 0,-4.729 -4.245,-5.467 -7.317,-5.467 -3.857,0 -7.005,1.278 -7.585,4.82 -0.156,0.956 -0.179,1.824 0.054,2.92 0.939,4.433 8.647,5.718 9.764,8.524 z m 70.543,-0.043 c 0.203,0.52 0.142,1.186 0.042,1.595 -0.175,0.714 -0.663,1.429 -2.095,1.429 -1.347,0 -2.159,-0.761 -2.159,-1.936 l -0.002,-2.087 h -5.763 l -0.004,1.659 c 0,4.794 3.773,6.23 7.812,6.23 3.885,0 7.08,-1.314 7.589,-4.9 0.264,-1.856 0.07,-3.073 -0.021,-3.533 -0.909,-4.496 -9.061,-5.83 -9.663,-8.352 a 2.741,2.741 0 0 1 -0.028,-1.114 c 0.155,-0.694 0.619,-1.447 1.963,-1.447 1.26,0 1.996,0.776 1.996,1.936 v 1.33 h 5.361 v -1.498 c 0,-4.68 -4.205,-5.41 -7.24,-5.41 -3.821,0 -6.941,1.25 -7.51,4.764 -0.159,0.95 -0.183,1.81 0.048,2.892 0.933,4.394 8.565,5.667 9.674,8.442 z m 18.21,2.907 c 1.507,0 1.975,-1.024 2.083,-1.564 0.047,-0.235 0.054,-0.55 0.052,-0.83 V 31.755 h 5.501 v 15.55 c 0.004,0.4 -0.037,1.218 -0.06,1.433 -0.378,4.045 -3.585,5.353 -7.576,5.353 -3.988,0 -7.193,-1.308 -7.568,-5.353 a 20.75,20.75 0 0 1 -0.052,-1.434 V 31.755 h 5.485 v 16.046 c -0.004,0.28 0.007,0.594 0.052,0.829 0.11,0.54 0.578,1.564 2.083,1.564 z m 45.266,-0.222 c 1.568,0 2.117,-0.989 2.218,-1.568 0.042,-0.246 0.058,-0.55 0.05,-0.826 v -3.146 h -2.222 V 41.26 h 7.678 v 5.821 c -0.003,0.407 -0.008,0.708 -0.068,1.432 -0.362,3.948 -3.794,5.362 -7.635,5.362 -3.845,0 -7.273,-1.414 -7.629,-5.362 a 15.117,15.117 0 0 1 -0.076,-1.432 l 0.002,-9.128 c 0,-0.39 0.047,-1.072 0.092,-1.42 0.482,-4.07 3.766,-5.362 7.614,-5.362 3.844,0 7.218,1.281 7.618,5.362 0.063,0.676 0.04,1.42 0.043,1.42 v 0.722 h -5.467 v -1.219 c 0,0 -0.005,-0.515 -0.07,-0.816 -0.099,-0.477 -0.51,-1.58 -2.17,-1.58 -1.573,0 -2.04,1.044 -2.16,1.58 a 5.046,5.046 0 0 0 -0.088,1.016 v 9.923 c -0.002,0.276 0.011,0.58 0.05,0.826 0.104,0.58 0.65,1.568 2.22,1.568 z M 175.991,69.248 h 9.465 v 50.807 h -9.465 z m 15.793,10.09 h 9.328 v 5.563 c 1.342,-1.7 3.048,-3.063 5.116,-4.09 2.061,-1.029 4.417,-1.543 7.062,-1.543 5.059,0 9.018,1.504 11.866,4.512 2.856,3.004 4.282,7.193 4.282,12.568 v 23.706 h -9.532 V 97.41 c 0,-3.084 -0.77,-5.52 -2.3,-7.313 -1.529,-1.79 -3.829,-2.684 -6.888,-2.684 -2.696,0 -4.956,0.928 -6.792,2.787 -1.829,1.86 -2.745,4.533 -2.745,8.026 v 21.828 h -9.397 z m 39.88,0 h 6.961 v -6.193 l 9.464,-6.473 v 12.666 h 8.282 v 8.423 h -8.282 v 15.243 c 0,1.764 0.092,3.19 0.278,4.278 0.188,1.091 0.573,1.926 1.15,2.507 0.578,0.58 1.416,0.963 2.504,1.149 1.094,0.184 2.543,0.278 4.35,0.278 v 8.838 h -1.32 c -3.155,0 -5.788,-0.277 -7.902,-0.834 -2.112,-0.559 -3.789,-1.496 -5.046,-2.819 -1.251,-1.323 -2.146,-3.064 -2.679,-5.219 -0.532,-2.158 -0.799,-4.862 -0.799,-8.112 V 87.761 h -6.961 z m 47.681,8.213 c -2.827,0 -5.28,0.627 -7.341,1.875 -2.068,1.252 -3.518,2.9 -4.351,4.945 h 23.109 c -0.696,-2.234 -2.044,-3.93 -4.037,-5.086 -1.995,-1.155 -4.459,-1.734 -7.38,-1.734 z m 0.351,32.575 c -3.202,0 -6.128,-0.527 -8.774,-1.577 -2.64,-1.052 -4.905,-2.494 -6.785,-4.328 -1.876,-1.832 -3.336,-3.991 -4.384,-6.475 -1.043,-2.48 -1.564,-5.131 -1.564,-7.948 0,-2.861 0.544,-5.547 1.636,-8.052 1.089,-2.504 2.584,-4.673 4.488,-6.505 1.901,-1.835 4.14,-3.288 6.717,-4.362 2.576,-1.073 5.346,-1.61 8.315,-1.61 3.019,0 5.811,0.489 8.388,1.469 2.577,0.977 4.792,2.347 6.649,4.11 a 19.064,19.064 0 0 1 4.351,6.231 c 1.041,2.394 1.563,5.003 1.563,7.832 v 3.327 h -33.13 c 0.651,2.877 2.062,5.197 4.243,6.959 2.181,1.764 4.945,2.645 8.287,2.645 2.645,0 4.938,-0.649 6.888,-1.949 1.948,-1.299 3.409,-3.038 4.384,-5.219 l 7.725,4.455 c -1.763,3.293 -4.231,5.95 -7.409,7.969 -3.183,2.016 -7.04,3.028 -11.588,3.028 z M 304.47,79.338 h 9.329 v 6.056 c 1.903,-4.036 5.38,-6.056 10.439,-6.056 1.483,0 2.82,0.166 4.004,0.488 1.178,0.326 2.237,0.742 3.167,1.251 l -3.552,8.91 a 10.475,10.475 0 0 0 -2.334,-1.147 c -0.856,-0.303 -1.96,-0.452 -3.302,-0.452 -2.74,0 -4.815,0.776 -6.23,2.33 -1.417,1.555 -2.124,4.095 -2.124,7.62 v 21.716 h -9.397 z m 29.997,0 h 9.328 v 5.563 c 1.343,-1.7 3.047,-3.063 5.115,-4.09 2.061,-1.029 4.419,-1.543 7.064,-1.543 5.057,0 9.017,1.504 11.865,4.512 2.855,3.004 4.282,7.193 4.282,12.568 v 23.706 h -9.532 V 97.41 c 0,-3.084 -0.77,-5.52 -2.3,-7.313 -1.528,-1.79 -3.828,-2.684 -6.887,-2.684 -2.696,0 -4.957,0.928 -6.792,2.787 -1.829,1.86 -2.747,4.533 -2.747,8.026 v 21.828 h -9.396 z m 62.916,8.213 c -2.826,0 -5.279,0.627 -7.34,1.875 -2.068,1.252 -3.519,2.9 -4.351,4.945 h 23.109 c -0.696,-2.234 -2.044,-3.93 -4.038,-5.086 -1.994,-1.155 -4.458,-1.734 -7.38,-1.734 z m 0.352,32.575 c -3.202,0 -6.13,-0.527 -8.774,-1.577 -2.64,-1.052 -4.905,-2.494 -6.785,-4.328 -1.876,-1.832 -3.337,-3.991 -4.384,-6.475 -1.044,-2.48 -1.564,-5.131 -1.564,-7.948 0,-2.861 0.544,-5.547 1.636,-8.052 1.088,-2.504 2.584,-4.673 4.487,-6.505 1.902,-1.835 4.14,-3.288 6.718,-4.362 2.576,-1.073 5.346,-1.61 8.314,-1.61 3.02,0 5.81,0.489 8.389,1.469 2.577,0.977 4.792,2.347 6.649,4.11 a 19.047,19.047 0 0 1 4.35,6.231 c 1.042,2.394 1.564,5.003 1.564,7.832 v 3.327 h -33.13 c 0.651,2.877 2.062,5.197 4.243,6.959 2.181,1.764 4.945,2.645 8.287,2.645 2.644,0 4.938,-0.649 6.888,-1.949 1.948,-1.299 3.408,-3.038 4.382,-5.219 l 7.727,4.455 c -1.763,3.293 -4.232,5.95 -7.409,7.969 -3.184,2.016 -7.04,3.028 -11.588,3.028 z m 21.568,-40.788 h 6.961 v -6.193 l 9.464,-6.473 v 12.666 h 8.281 v 8.423 h -8.281 v 15.243 c 0,1.764 0.091,3.19 0.278,4.278 0.187,1.091 0.572,1.926 1.15,2.507 0.578,0.58 1.415,0.963 2.504,1.149 1.092,0.184 2.543,0.278 4.349,0.278 v 8.838 h -1.319 c -3.155,0 -5.79,-0.277 -7.902,-0.834 -2.113,-0.559 -3.79,-1.496 -5.046,-2.819 -1.252,-1.323 -2.147,-3.064 -2.68,-5.219 -0.532,-2.158 -0.798,-4.862 -0.798,-8.112 V 87.761 h -6.961 z"
       id="path279"
       inkscape:connector-curvature="0" />
  </g>
</svg>
