<?xml version="1.0" encoding="utf-8"?>
<!-- Generator: Adobe Illustrator 23.0.3, SVG Export Plug-In . SVG Version: 6.00 Build 0)  -->
<svg version="1.1" id="Layer_1" xmlns="http://www.w3.org/2000/svg" xmlns:xlink="http://www.w3.org/1999/xlink" x="0px" y="0px"
	 viewBox="0 0 432 432" style="enable-background:new 0 0 432 432;" xml:space="preserve">
<style type="text/css">
	.st0{fill:#EA0029;}
	.st1{fill:#473A46;}
	.st2{fill:#FFFFFF;}
</style>
<polygon class="st0" points="130,52.8 130,355.32 216.8,379 301.16,315.99 300.61,98.93 "/>
<g>
	<path class="st1" d="M193.2,205.65l0.05-76.83l4.47-3.41l0.06,81.46l-0.17,0.1l-1.01-0.42L193.2,205.65z M236.58,176.22
		c1.74,2.6,2.71,5.76,2.8,9.18l-0.05,26.1l-2.79,2.18l-1.01,1l-0.17-0.07l-0.04-26.62c-0.02-3.08-0.95-6.15-2.61-8.71L236.58,176.22
		z M218.36,175.54c1.96,0.52,3.91,0.31,5.51-0.6c1.58-0.9,2.72-2.42,3.22-4.27c0.16-0.58,0.21-1.56,0.26-2.51l0.02-0.44l-0.06-15.61
		c0.13-2.43-0.64-4.89-2.1-6.76c-1.35-1.8-3.34-3.06-5.91-3.75l-9.63-2.53l0.01-4.5l13.39,3.58c2.56,0.69,4.71,2.11,6.21,4.13
		c1.49,1.93,2.28,4.31,2.35,7.06l0.02,21.36c-0.07,1.51-0.21,2.3-0.32,2.7c-0.41,1.55-1.39,3.09-2.91,4.59l-0.89,0.88l0.83,0.94
		c2.05,2.33,3.19,5.21,3.21,8.12l0.03,28.01l-0.17,0.1l-1.01-0.41l-3.38-0.9l-0.01-24.58c0.01-2.33-0.7-4.63-2.06-6.64l-0.06-0.09
		c-1.45-1.8-3.42-3.05-5.87-3.71l-9.33-2.5l0-3.93L218.36,175.54z M209.72,142.92l8.63,2.26c1.7,0.45,3.02,1.28,3.94,2.45
		c0.88,1.07,1.34,2.6,1.29,4.32l0.01,12.8l-13.83-3.66L209.72,142.92z M206.04,202.16l-3.31,2.49l-1.04,0.99l-0.17-0.08l-0.06-81.42
		l25.96,7.52c3.52,0.94,6.56,2.92,8.77,5.71c2.03,2.58,3.12,5.97,3.15,9.79l-0.05,17.6c-0.01,0.77-0.1,1.85-0.29,2.56
		c-0.53,1.99-1.67,3.69-3.22,4.82l-0.46,0.43l-0.04-0.03c0.06-0.51,0.1-1.08,0.13-1.72l-0.02-21.4c0.03-3.52-0.96-6.51-3.15-9.42
		c-2.08-2.69-4.91-4.57-8.19-5.45l-18.06-4.83l0.04,34.21l17.51,4.64c0,0.09-0.01,0.19-0.01,0.32c-0.01,0.37-0.02,0.75-0.02,0.8
		c-0.24,0.91-0.77,1.61-1.52,2.01c-0.76,0.41-1.68,0.49-2.67,0.23l-13.31-3.51L206.04,202.16z M243.12,185.46L243.12,185.46
		c-0.06-4.43-1.32-8.45-3.66-11.65c1.51-1.59,2.59-3.49,3.13-5.53c0.25-0.92,0.4-2.07,0.46-3.53l0.02-17.51
		c0.02-4.56-1.35-8.76-3.96-12.16c-2.69-3.46-6.3-5.82-10.73-7.01l-29.19-8.41l-9.78,7.54l0.03,80.84v0.45l10.59,2.83l9.73-7.33
		l-0.01-22.93l8.34,2.24c1.59,0.43,2.91,1.25,3.89,2.39c0.91,1.32,1.39,2.87,1.34,4.38l-0.01,27.49l10.56,2.82l9.29-7.04
		L243.12,185.46z"/>
	<path class="st2" d="M283.17,276.77c-1.04,0.57-2.81,1.24-4.8,0.71c-3.85-1.03-5.91-4.87-5.96-8.13c0-0.07,0-2.34,0-2.41
		c0-2.75,0.65-4.45,1.75-5.29c1.05-0.8,2.52-0.99,4.23-0.53c1.26,0.34,2.45,1.1,3.39,1.87l2.39-4.14c-1.38-1.16-3.37-2.45-5.92-3.13
		c-3.18-0.85-6.11-0.41-8.26,1.23c-2.13,1.63-3.34,4.69-3.34,8.66c0,0.07,0,2.35,0,2.42c0.04,6.9,4.71,12.95,11.37,14.73
		c1.14,0.3,2.18,0.42,3.11,0.42c1.83,0,3.28-0.49,4.27-0.99L283.17,276.77z M250.3,263.86l6.42,1.71l0.17,0.05l0.03-5.04l-6.6-1.76
		l0.03-5.22l8.26,2.2l0.03-5.04l-13.83-3.69l-0.15,26.29l14.25,3.8l0.03-5.04l-8.68-2.31L250.3,263.86z M225.09,254.97l2.5,0.67
		c1.02,0.29,1.67,0.29,2.05,0c0.36-0.28,0.53-0.86,0.53-1.89c0-0.3,0.02-2.04,0.02-2.78c0-1.79-0.88-2.98-2.54-3.42l-2.52-0.67
		L225.09,254.97z M235.85,250.38c0,0.11-0.01,5.61-0.01,5.61c0,1.73-0.68,3.22-1.92,4.17c-1.38,1.06-3.28,1.34-5.35,0.79l-3.52-0.94
		l-0.05,8.12l-5.57-1.48l0.15-26.29l9.16,2.44C233.33,244.01,235.85,246.78,235.85,250.38 M177.63,244.49l6.42,1.71l0.17,0.05
		l0.03-5.04l-6.6-1.76l0.03-5.22l8.26,2.2l0.03-5.04l-13.83-3.69L172,254l14.25,3.8l0.03-5.04l-8.68-2.31L177.63,244.49z
		 M151.41,234.08l2.5,0.67c1.02,0.29,1.67,0.29,2.06,0c0.37-0.28,0.54-0.86,0.54-1.89v-1.29c0-1.84-0.95-3.19-2.54-3.62l-2.52-0.67
		L151.41,234.08z M161.8,232.62c0,0-0.01,1.38-0.01,1.46c0,2.81-1.26,4.18-2.38,4.84c1.42,1.6,2.08,4.03,2.06,6.6
		c0,0.04-0.01,5.72-0.01,5.72l-5.66-1.5c0,0,0.01-5.49,0.01-6.23c0-1.84-0.95-3.19-2.54-3.62l-1.89-0.5l-0.05,9.13l-5.57-1.48
		l0.15-26.29l9.16,2.44C159.29,224.31,161.83,227.97,161.8,232.62 M210.01,256.02c0.18,2.01-0.58,3.96-2.06,5.2
		c-1.05,0.88-2.35,1.34-3.79,1.34c-0.64,0-1.31-0.09-2-0.27c-5.07-1.35-8.01-5.48-8.01-5.48l2.99-3.69c0,0,2.55,3.1,5.19,3.81
		c0.43,0.12,1.23,0.25,1.71-0.12c0.26-0.2,0.39-0.52,0.39-0.95c0.01-1.23-2.07-3.43-4.28-5.76l-0.66-0.7
		c-2.33-2.48-4.74-5.05-4.74-8.19c0-2.08,0.81-3.85,2.28-4.98c1.5-1.15,3.48-1.48,5.59-0.92c4.65,1.24,7.07,4.55,7.07,4.55
		l-2.41,4.18c0,0-2.3-2.7-4.82-3.38c-0.73-0.19-1.38-0.14-1.75,0.14c-0.25,0.19-0.38,0.49-0.38,0.88c-0.01,1.23,1.81,3.08,3.91,5.22
		c0.43,0.44,0.87,0.89,1.31,1.35C207.1,249.88,209.73,253.03,210.01,256.02"/>
</g>
</svg>
