<?xml version="1.0" encoding="UTF-8" standalone="no"?>
<!-- Created with Inkscape (http://www.inkscape.org/) -->

<svg
   xmlns:dc="http://purl.org/dc/elements/1.1/"
   xmlns:cc="http://creativecommons.org/ns#"
   xmlns:rdf="http://www.w3.org/1999/02/22-rdf-syntax-ns#"
   xmlns:svg="http://www.w3.org/2000/svg"
   xmlns="http://www.w3.org/2000/svg"
   xmlns:sodipodi="http://sodipodi.sourceforge.net/DTD/sodipodi-0.dtd"
   xmlns:inkscape="http://www.inkscape.org/namespaces/inkscape"
   width="96.499893mm"
   height="59.594582mm"
   viewBox="0 0 96.49989 59.594584"
   version="1.1"
   id="svg8"
   inkscape:version="0.92.2 5c3e80d, 2017-08-06"
   sodipodi:docname="soylent.svg">
  <defs
     id="defs2">
    <clipPath
       id="clipPath116"
       clipPathUnits="userSpaceOnUse">
      <path
         inkscape:connector-curvature="0"
         id="path114"
         d="M 0,1133.858 H 1133.858 V 0 H 0 Z" />
    </clipPath>
    <clipPath
       clipPathUnits="userSpaceOnUse"
       id="clipPath196">
      <rect
         id="rect198"
         width="975"
         height="427.50037"
         x="110.305"
         y="-778.92902"
         style="stroke-width:0.75"
         transform="scale(1,-1)" />
    </clipPath>
    <clipPath
       clipPathUnits="userSpaceOnUse"
       id="clipPath204">
      <rect
         id="rect206"
         width="913.24896"
         height="424"
         x="110.305"
         y="-778.92902"
         style="stroke-width:0.75"
         transform="scale(1,-1)" />
    </clipPath>
  </defs>
  <sodipodi:namedview
     id="base"
     pagecolor="#ffffff"
     bordercolor="#666666"
     borderopacity="1.0"
     inkscape:pageopacity="0.0"
     inkscape:pageshadow="2"
     inkscape:zoom="0.35"
     inkscape:cx="-7.3836505"
     inkscape:cy="276.47698"
     inkscape:document-units="mm"
     inkscape:current-layer="layer1"
     showgrid="false"
     inkscape:window-width="1440"
     inkscape:window-height="769"
     inkscape:window-x="0"
     inkscape:window-y="1"
     inkscape:window-maximized="1"
     fit-margin-bottom="7.44"
     fit-margin-top="7.44"
     fit-margin-left="0"
     fit-margin-right="0" />
  <metadata
     id="metadata5">
    <rdf:RDF>
      <cc:Work
         rdf:about="">
        <dc:format>image/svg+xml</dc:format>
        <dc:type
           rdf:resource="http://purl.org/dc/dcmitype/StillImage" />
        <dc:title></dc:title>
      </cc:Work>
    </rdf:RDF>
  </metadata>
  <g
     inkscape:label="Layer 1"
     inkscape:groupmode="layer"
     id="layer1"
     transform="translate(21.85891,-162.38994)">
    <g
       transform="matrix(0.10566658,0,0,-0.10545892,-33.514462,251.97495)"
       inkscape:label="Soylent_Logo_Treatments_2017"
       id="g104"
       clip-path="url(#clipPath204)">
      <path
         inkscape:connector-curvature="0"
         id="path106"
         style="fill:#ffffff;fill-opacity:1;fill-rule:nonzero;stroke:none"
         d="M 0,0 H 1133.106 V 1133.811 H 0 Z" />
      <path
         inkscape:connector-curvature="0"
         id="path108"
         style="fill:#ffffff;fill-opacity:1;fill-rule:nonzero;stroke:none"
         d="M 1007.338,370.485 H 126.514 v 392.896 h 880.824 z" />
      <g
         id="g110">
        <g
           clip-path="url(#clipPath116)"
           id="g112">
          <g
             transform="translate(1054.4532,768.4528)"
             id="g118">
            <path
               inkscape:connector-curvature="0"
               id="path120"
               style="fill:#231f20;fill-opacity:1;fill-rule:nonzero;stroke:none"
               d="m 0,0 v -6.225 h 3.892 c 2.199,0 3.387,1.145 3.387,3.113 C 7.279,-1.051 6.136,0 3.892,0 Z m 8.562,-17.026 -5.77,8.331 H 0 v -8.331 H -2.698 V 2.472 h 6.59 c 3.709,0 6.09,-2.241 6.09,-5.584 0,-2.747 -1.834,-4.898 -4.398,-5.401 l 5.814,-8.513 z m -19.409,9.747 c 0,-4.257 1.327,-7.827 3.982,-10.709 2.653,-2.885 6.135,-4.305 10.391,-4.305 4.257,0 7.735,1.42 10.392,4.305 2.654,2.882 3.981,6.452 3.981,10.709 0,4.26 -1.327,7.831 -3.981,10.713 C 11.261,6.318 7.783,7.738 3.526,7.738 -0.73,7.738 -4.212,6.318 -6.865,3.434 -9.52,0.552 -10.847,-3.019 -10.847,-7.279 m -2.84,0 c 0,5.084 1.603,9.341 4.853,12.729 3.251,3.433 7.369,5.125 12.36,5.125 4.988,0 9.065,-1.692 12.316,-5.125 3.246,-3.388 4.897,-7.645 4.897,-12.729 0,-5.08 -1.651,-9.337 -4.897,-12.77 -3.251,-3.388 -7.328,-5.081 -12.316,-5.081 -4.991,0 -9.109,1.693 -12.36,5.081 -3.25,3.433 -4.853,7.69 -4.853,12.77" />
          </g>
          <g
             transform="translate(246.5548,576.651)"
             id="g122">
            <path
               inkscape:connector-curvature="0"
               id="path124"
               style="fill:#231f20;fill-opacity:1;fill-rule:nonzero;stroke:none"
               d="m 0,0 c -10.018,1.802 -33.327,7.161 -33.327,18.032 v 2.149 c 0,14.747 19.594,18.68 31.173,18.68 h 1.697 c 14.873,0 25.061,-6.187 31.398,-10.821 1.304,-0.993 2.883,-1.519 4.558,-1.519 3.177,0 6.041,1.916 6.964,4.656 0.914,2.686 -0.035,5.519 -2.512,7.417 -8.01,5.878 -20.915,13.688 -40.408,13.688 H -2.158 C -23.949,52.282 -47.4,42.234 -47.4,20.176 v -2.144 c 0,-23.527 33.97,-29.042 45.136,-30.854 19.26,-3.116 38.067,-7.607 38.067,-24.935 0,-16.76 -18.147,-22.733 -35.131,-22.733 h -2.548 c -12.529,0 -30.6,7.524 -36.495,18.321 -1.265,2.312 -3.681,3.691 -6.454,3.691 -2.869,0 -5.523,-1.461 -6.752,-3.719 -1.083,-1.969 -0.997,-4.363 0.143,-6.117 8.41,-15.813 32.273,-25.6 49.558,-25.6 h 2.548 c 22.826,0 49.486,9.469 49.49,36.157 C 50.162,-8.66 21.17,-3.655 0,0" />
          </g>
          <g
             transform="translate(333.7726,542.8004)"
             id="g126">
            <path
               inkscape:connector-curvature="0"
               id="path128"
               style="fill:#231f20;fill-opacity:1;fill-rule:nonzero;stroke:none"
               d="m 0,0 v 46.163 c 0,14.639 14.491,26.549 32.301,26.549 h 3.117 c 17.805,0 32.293,-11.91 32.293,-26.549 V -0.094 c 0,-14.638 -14.488,-26.551 -32.293,-26.551 H 32.301 C 15.207,-26.645 1.179,-15.668 0.078,-1.842 0.05,-1.229 0,-0.632 0,0 m 35.418,86.133 h -3.117 c -25.729,0 -46.66,-17.929 -46.66,-39.97 V -0.094 c 0,-22.041 20.931,-39.969 46.66,-39.969 h 3.117 c 25.724,0 46.653,17.928 46.653,39.969 v 46.257 c 0,22.041 -20.929,39.97 -46.653,39.97" />
          </g>
          <g
             transform="translate(534.0255,628.9332)"
             id="g130">
            <path
               inkscape:connector-curvature="0"
               id="path132"
               style="fill:#231f20;fill-opacity:1;fill-rule:nonzero;stroke:none"
               d="M 0,0 C -3.943,0 -7.035,-2.998 -7.035,-6.828 V -87.91 l 0.043,-2.944 c -1.72,-12.29 -15.951,-21.918 -32.402,-21.918 h -3.112 c -17.814,0 -32.304,12.014 -32.304,26.785 v 79.159 c 0,3.89 -3.143,6.828 -7.313,6.828 -3.949,0 -7.045,-2.998 -7.045,-6.828 v -79.159 c 0,-22.17 20.936,-40.205 46.662,-40.205 h 3.112 c 12.066,0 24.071,3.89 32.362,10.329 v -20.433 c 0,-14.639 -14.49,-26.546 -32.304,-26.546 h -3.112 c -16.748,0 -31.642,7.486 -35.422,17.838 -1.115,2.823 -3.7,4.574 -6.743,4.574 -3.537,0 -7.323,-2.65 -7.323,-6.595 0,-0.596 0,-1.801 0.762,-3.008 6.561,-17.221 29.436,-26.233 48.726,-26.233 h 3.112 c 12.389,0 24.062,4.127 32.868,11.62 8.89,7.563 13.787,17.635 13.785,28.353 V -6.828 C 7.317,-2.612 3.52,0 0,0" />
          </g>
          <g
             transform="translate(616.9698,512.8522)"
             id="g134">
            <path
               inkscape:connector-curvature="0"
               id="path136"
               style="fill:#231f20;fill-opacity:1;fill-rule:nonzero;stroke:none"
               d="m 0,0 -0.272,-0.067 c -1.233,2.05 -3.572,3.376 -6.377,3.376 -12.504,0 -22.681,8.378 -22.681,18.677 v 137.097 c 0,4.022 -3.012,6.831 -7.324,6.831 -3.945,0 -7.031,-3.002 -7.031,-6.831 V 21.986 c 0,-17.999 16.267,-32.101 37.036,-32.101 4.749,0 7.316,3.394 7.319,6.589 0,1.224 -0.31,2.353 -0.862,3.325 z" />
          </g>
          <g
             transform="translate(713.007,588.9635)"
             id="g138">
            <path
               inkscape:connector-curvature="0"
               id="path140"
               style="fill:#231f20;fill-opacity:1;fill-rule:nonzero;stroke:none"
               d="M 0,0 V -16.06 H -67.709 V 0 c 0,14.639 14.616,26.549 32.585,26.549 h 2.826 C -14.487,26.549 0,14.639 0,0 M -32.871,39.97 H -35.13 C -61.011,39.97 -82.066,22.041 -82.066,0 v -46.257 c 0,-22.041 20.928,-39.97 46.656,-39.97 h 3.112 c 19.886,0 37.603,10.833 44.128,27.073 l 0.155,0.481 c 0.137,0.372 0.39,1.065 0.39,1.923 0,3.697 -3.339,6.592 -7.606,6.592 -3.264,0 -5.944,-1.883 -6.42,-4.252 -4.608,-11.005 -16.925,-18.398 -30.647,-18.398 h -3.112 c -17.812,0 -32.299,11.912 -32.299,26.551 v 16.775 H 7.038 c 4.032,0 7.317,3.064 7.317,6.83 V 0 c 0,22.787 -20.304,39.97 -47.226,39.97" />
          </g>
          <g
             transform="translate(807.0646,628.9293)"
             id="g142">
            <path
               inkscape:connector-curvature="0"
               id="path144"
               style="fill:#231f20;fill-opacity:1;fill-rule:nonzero;stroke:none"
               d="m 0,0 h -2.835 c -12.22,0 -24.302,-3.941 -32.585,-10.47 v 3.642 c 0,3.88 -3.006,6.591 -7.313,6.591 -4.012,0 -7.038,-2.832 -7.038,-6.591 V -119.36 c 0,-3.83 3.091,-6.832 7.038,-6.832 4.17,0 7.313,2.937 7.313,6.832 v 81.535 c 0,13.23 14.92,24.408 32.585,24.408 H 0 c 17.963,0 32.578,-12.018 32.578,-26.788 v -79.155 c 0,-3.83 3.093,-6.832 7.039,-6.832 3.523,0 7.325,2.612 7.325,6.832 v 79.152 C 46.942,-18.039 25.884,0 0,0" />
          </g>
          <g
             transform="translate(930.3097,516.1608)"
             id="g146">
            <path
               inkscape:connector-curvature="0"
               id="path148"
               style="fill:#231f20;fill-opacity:1;fill-rule:nonzero;stroke:none"
               d="m 0,0 c -12.716,0 -22.674,8.203 -22.674,18.678 v 80.195 h 20.978 c 4.666,0 7.181,3.459 7.181,6.713 0,3.252 -2.515,6.711 -7.181,6.711 h -20.978 v 43.713 c 0,3.827 -3.09,6.71 -7.182,6.71 -4.092,0 -7.176,-2.883 -7.176,-6.71 v -43.713 h -11.073 c -4.804,0 -7.395,-3.459 -7.395,-6.711 0,-3.254 2.591,-6.713 7.395,-6.713 h 11.073 V 18.678 c 0,-17.999 16.269,-32.102 37.032,-32.102 4.497,0 7.183,3.413 7.183,6.713 C 7.183,-3.412 4.497,0 0,0" />
          </g>
          <path
             inkscape:connector-curvature="0"
             id="path150"
             style="fill:#231f20;fill-opacity:1;fill-rule:nonzero;stroke:none"
             d="m 126.514,763.38 h 880.824 V 370.484 H 126.514 Z M 110.305,354.929 h 913.249 v 424 H 110.305 Z" />
        </g>
      </g>
    </g>
  </g>
</svg>
